<svg width="35" height="175" viewBox="0 0 35 175" fill="none" xmlns="http://www.w3.org/2000/svg">
<path d="M32.4561 0.605291C32.9557 0.0192661 33.8279 -0.0552296 34.4042 0.4389C34.9806 0.93303 35.0427 1.80867 34.5431 2.39469L32.4561 0.605291ZM26.8456 173.295C26.6732 174.044 25.9312 174.519 25.1882 174.356L13.0804 171.7C12.3374 171.537 11.8748 170.798 12.0472 170.049C12.2196 169.3 12.9617 168.825 13.7047 168.988L24.4671 171.349L26.9641 160.499C27.1365 159.75 27.8785 159.275 28.6215 159.438C29.3645 159.601 29.8271 160.34 29.6547 161.089L26.8456 173.295ZM33.4996 1.49999C34.5431 2.39469 34.5433 2.39445 34.5433 2.39451C34.5429 2.39492 34.5426 2.39527 34.5419 2.3961C34.5405 2.39775 34.5381 2.40058 34.5347 2.4046C34.5279 2.41263 34.5172 2.42537 34.5025 2.44281C34.4733 2.47769 34.4286 2.53131 34.3691 2.60346C34.2501 2.74775 34.0721 2.96608 33.841 3.25656C33.3787 3.83754 32.7037 4.70697 31.8628 5.84959C30.1808 8.13506 27.8356 11.5121 25.1998 15.8588C19.9266 24.5547 13.4991 37.1162 8.88481 52.5696C-0.334057 83.4442 -2.33153 125.893 26.6723 172.25L24.3283 173.75C-5.16776 126.607 -3.16559 83.3058 6.24017 51.8053C10.9382 36.0713 17.4793 23.289 22.8465 14.438C25.5309 10.0113 27.924 6.56414 29.6501 4.21875C30.5133 3.04594 31.2099 2.14828 31.6931 1.54103C31.9348 1.23739 32.1231 1.00633 32.2522 0.849745C32.3167 0.771452 32.3665 0.711777 32.4007 0.670956C32.4178 0.650545 32.4311 0.634848 32.4403 0.623895C32.445 0.618417 32.4486 0.614126 32.4512 0.611025C32.4525 0.609474 32.4538 0.60804 32.4544 0.607265C32.4554 0.60613 32.4561 0.605291 33.4996 1.49999Z" fill="#242938"/>
</svg>
