<svg width="41" height="123" viewBox="0 0 41 123" fill="none" xmlns="http://www.w3.org/2000/svg">
<path d="M0.647009 118.207C0.485567 118.955 0.960581 119.691 1.70798 119.853L13.8876 122.484C14.635 122.645 15.3717 122.17 15.5332 121.423C15.6946 120.675 15.2196 119.938 14.4722 119.777L3.6459 117.439L5.98443 106.612C6.14587 105.865 5.67086 105.128 4.92346 104.967C4.17606 104.805 3.43929 105.28 3.27785 106.028L0.647009 118.207ZM13.4998 1.49998C12.4953 2.45278 12.4951 2.45257 12.4952 2.45263C12.4955 2.45299 12.4958 2.4533 12.4965 2.45402C12.4979 2.45546 12.5002 2.45794 12.5035 2.46143C12.5101 2.46843 12.5205 2.47951 12.5346 2.49466C12.5629 2.52494 12.6062 2.57145 12.6635 2.63383C12.7783 2.7586 12.9497 2.94688 13.1714 3.19601C13.6148 3.69432 14.2595 4.43584 15.0556 5.39937C16.6481 7.32689 18.8441 10.1401 21.246 13.6695C26.0555 20.7367 31.6607 30.6323 34.9192 42.0061C38.1753 53.3714 39.0753 66.1617 34.5529 79.0894C30.0338 92.0077 20.0463 105.217 1.25008 117.336L2.75052 119.663C21.9545 107.282 32.4045 93.6165 37.1666 80.0037C41.9254 66.4002 40.9502 53.0032 37.5812 41.2435C34.2145 29.4924 28.4445 19.3256 23.5352 12.1116C21.0776 8.50037 18.8283 5.61834 17.1902 3.63571C16.371 2.64417 15.7042 1.87691 15.2399 1.3552C15.0077 1.09433 14.8262 0.894792 14.7015 0.759249C14.6392 0.691475 14.591 0.639695 14.5579 0.604239C14.5414 0.586511 14.5285 0.572864 14.5196 0.563339C14.5151 0.558576 14.5116 0.554844 14.509 0.552148C14.5077 0.5508 14.5066 0.549555 14.5059 0.548881C14.505 0.547896 14.5043 0.547171 13.4998 1.49998Z" fill="#242938"/>
</svg>
