<svg width="217" height="247" viewBox="0 0 217 247" fill="none" xmlns="http://www.w3.org/2000/svg">
<path d="M115.053 241.384C114.289 241.413 113.646 240.818 113.616 240.054L113.134 227.602C113.105 226.838 113.7 226.195 114.464 226.165C115.228 226.136 115.872 226.731 115.901 227.495L116.33 238.563L127.397 238.135C128.161 238.105 128.805 238.7 128.834 239.465C128.864 240.229 128.268 240.872 127.504 240.902L115.053 241.384ZM100.185 6.38325C90.4492 11.9332 84.6492 18.3825 81.6736 25.5134C78.6927 32.6571 78.4777 40.6487 80.2167 49.4001C83.7129 66.9948 94.9826 87.1627 106.594 108.742C118.141 130.202 129.971 152.974 134.188 175.466C138.425 198.061 134.991 220.436 116.016 240.94L113.984 239.06C132.258 219.314 135.574 197.877 131.467 175.977C127.341 153.975 115.733 131.571 104.155 110.054C92.6412 88.655 81.0984 68.0443 77.5008 49.9397C75.6929 40.8415 75.8608 32.2533 79.1181 24.4471C82.3808 16.6282 88.6745 9.75759 98.8137 3.97767L100.185 6.38325Z" fill="#242938"/>
</svg>
