<svg width="217" height="216" viewBox="0 0 217 216" fill="none" xmlns="http://www.w3.org/2000/svg">
<path d="M60.6555 210.341C61.3961 210.531 62.1507 210.085 62.3409 209.345L65.4416 197.276C65.6318 196.535 65.1857 195.781 64.4451 195.59C63.7045 195.4 62.9499 195.846 62.7597 196.587L60.0036 207.315L49.2759 204.558C48.5354 204.368 47.7807 204.814 47.5905 205.555C47.4002 206.295 47.8463 207.05 48.5869 207.24L60.6555 210.341ZM158.312 2.21151C166.348 15.6251 170.076 27.5787 170.619 38.3762C171.162 49.1642 168.529 58.888 163.703 67.8597C154.011 85.8767 135.515 100.806 116.18 115.009C96.9739 129.119 76.8864 142.54 64.6344 157.417C58.4796 164.89 54.209 172.831 53.0323 181.523C51.8524 190.239 53.8048 199.55 59.8082 209.705L62.1918 208.295C56.4452 198.575 54.6945 189.886 55.7763 181.895C56.8613 173.88 60.8172 166.407 66.7718 159.177C78.7386 144.647 98.4011 131.506 117.82 117.241C137.11 103.069 156.114 87.8108 166.141 69.1715C171.174 59.8151 173.956 49.5936 173.385 38.2371C172.814 26.8901 168.902 14.4999 160.688 0.788486L158.312 2.21151Z" fill="#242938"/>
</svg>
