<svg width="147" height="163" viewBox="0 0 147 163" fill="none" xmlns="http://www.w3.org/2000/svg">
<path d="M96.3722 40.4259L95.7213 41.6478L96.3722 40.4259ZM116.005 40.1639L114.702 39.6943L116.005 40.1639ZM81.7416 49.6121L80.3597 49.5271L81.7416 49.6121ZM93.2091 142.847C92.4548 142.973 91.7416 142.463 91.6161 141.709L89.5708 129.417C89.4453 128.663 89.955 127.95 90.7093 127.824C91.4636 127.699 92.1768 128.209 92.3023 128.963L94.1203 139.889L105.046 138.071C105.8 137.945 106.514 138.455 106.639 139.209C106.765 139.963 106.255 140.676 105.501 140.802L93.2091 142.847ZM0.873787 38.9289C1.93245 38.3925 2.97513 37.867 4.00299 37.3531L5.24136 39.8297C4.21871 40.3411 3.18049 40.8643 2.12529 41.3989L0.873787 38.9289ZM9.04853 34.8701C11.2275 33.8182 13.3457 32.8265 15.4161 31.9011L16.546 34.4291C14.5057 35.341 12.4127 36.3208 10.2523 37.3638L9.04853 34.8701ZM20.6074 29.6859C22.8562 28.7767 25.0618 27.9568 27.2434 27.235L28.1131 29.8639C25.9966 30.5641 23.8475 31.3627 21.6453 32.253L20.6074 29.6859ZM32.6995 25.63C35.0313 25.0342 37.3543 24.5621 39.6933 24.2247L40.0886 26.9654C37.855 27.2876 35.629 27.7395 33.3849 28.3128L32.6995 25.63ZM45.39 23.6776C47.7332 23.5664 50.1073 23.5945 52.5362 23.7713L52.3352 26.533C50.0161 26.3642 47.753 26.3375 45.5213 26.4435L45.39 23.6776ZM58.2065 24.4403C60.4684 24.8065 62.7865 25.2971 65.1779 25.9179L64.4822 28.5981C62.1687 27.9975 59.9351 27.5253 57.7639 27.1737L58.2065 24.4403ZM70.6125 27.5117C72.763 28.2116 74.9768 29.0103 77.2648 29.9115L76.2499 32.4878C74.0095 31.6053 71.8485 30.8259 69.7556 30.1448L70.6125 27.5117ZM82.4766 32.0851C84.5463 32.9938 86.6774 33.9808 88.8768 35.0485L87.6675 37.5395C85.4971 36.4858 83.3981 35.5138 81.3634 34.6205L82.4766 32.0851ZM93.8951 37.5633C94.9229 38.0936 95.9654 38.6404 97.0231 39.2039L95.7213 41.6478C94.6737 41.0898 93.642 40.5486 92.6254 40.0241L93.8951 37.5633ZM97.0231 39.2039C97.6854 39.5567 98.5664 39.9528 99.5966 40.3429L98.6159 42.9324C97.5035 42.5111 96.5107 42.0683 95.7213 41.6478L97.0231 39.2039ZM103.998 41.6744C105.911 42.1133 107.858 42.3733 109.581 42.3193L109.668 45.0869C107.631 45.1507 105.435 44.8449 103.379 44.3733L103.998 41.6744ZM113.421 41.3352C114.007 40.9408 114.443 40.4149 114.702 39.6943L117.307 40.6335C116.837 41.9366 116.015 42.9273 114.966 43.633L113.421 41.3352ZM114.702 39.6943C115.131 38.5043 115.295 37.4755 115.27 36.5968L118.038 36.5181C118.075 37.8034 117.832 39.1792 117.307 40.6335L114.702 39.6943ZM113.195 32.6627C111.767 31.5906 109.633 30.9043 107.037 30.7343L107.218 27.9712C110.145 28.1629 112.86 28.9486 114.858 30.4485L113.195 32.6627ZM101.531 31.0918C99.3227 31.4983 97.0639 32.2153 94.9188 33.2438L93.7217 30.747C96.0936 29.6097 98.587 28.8182 101.03 28.3686L101.531 31.0918ZM90.2262 36.1856C88.4514 37.6176 86.9029 39.3219 85.7068 41.2962L83.3385 39.8615C84.7185 37.5837 86.4901 35.6422 88.4874 34.0307L90.2262 36.1856ZM83.6328 46.3095C83.3709 47.3786 83.1967 48.5074 83.1235 49.6971L80.3597 49.5271C80.4429 48.1749 80.6415 46.8824 80.9434 45.6505L83.6328 46.3095ZM83.1235 49.6971C83.0597 50.7338 83.0797 51.7925 83.1754 52.8745L80.4172 53.1185C80.3105 51.9124 80.2866 50.7147 80.3597 49.5271L83.1235 49.6971ZM84.109 57.979C84.6464 60.0014 85.3734 62.0865 86.2382 64.239L83.6687 65.2712C82.7751 63.0468 82.0071 60.8511 81.4329 58.69L84.109 57.979ZM88.375 69.1575C89.2918 71.1456 90.278 73.1747 91.2963 75.2527L88.8097 76.4711C87.7905 74.3912 86.792 72.337 85.8605 70.317L88.375 69.1575ZM93.685 80.1377C94.6648 82.1614 95.6428 84.2256 96.5816 86.3267L94.0534 87.4562C93.1308 85.3912 92.1663 83.355 91.1928 81.3444L93.685 80.1377ZM98.7191 91.385C99.5613 93.5143 100.339 95.6823 101.016 97.8877L98.3694 98.7007C97.7169 96.5765 96.9646 94.4777 96.1442 92.4035L98.7191 91.385ZM102.431 103.248C102.923 105.504 103.289 107.797 103.491 110.127L100.733 110.367C100.541 108.167 100.195 105.991 99.7255 103.839L102.431 103.248ZM103.649 115.715C103.575 118.003 103.326 120.321 102.872 122.669L100.153 122.143C100.579 119.945 100.812 117.773 100.881 115.626L103.649 115.715ZM101.457 128.1C100.757 130.23 99.8763 132.378 98.7959 134.546L96.3178 133.31C97.3398 131.26 98.1688 129.235 98.8262 127.235L101.457 128.1ZM96.0581 139.391C95.4498 140.353 94.8004 141.318 94.1083 142.287L91.8555 140.677C92.5179 139.75 93.1381 138.828 93.7178 137.911L96.0581 139.391Z" fill="#E4E4E4"/>
</svg>
