<svg width="136" height="163" viewBox="0 0 136 163" fill="none" xmlns="http://www.w3.org/2000/svg">
<path d="M107.5 92L106.787 90.8129L107.5 92ZM107.5 130.5L108.865 130.731L107.5 130.5ZM79.3965 143.437L78.5907 144.563L79.3965 143.437ZM45.5464 160.552C44.9357 161.012 44.0676 160.89 43.6074 160.28L36.1081 150.329C35.6479 149.718 35.7698 148.85 36.3805 148.39C36.9911 147.929 37.8592 148.051 38.3194 148.662L44.9855 157.507L53.8309 150.841C54.4415 150.381 55.3096 150.503 55.7698 151.114C56.23 151.724 56.1081 152.592 55.4974 153.053L45.5464 160.552ZM96.795 2.63347C95.8416 3.30223 95.0096 4.00352 94.2875 4.7329L92.3198 2.78471C93.1661 1.92985 94.1261 1.12323 95.205 0.366527L96.795 2.63347ZM91.3896 8.90958C90.5315 10.8199 90.124 12.9106 90.0975 15.1712L87.3287 15.1387C87.3589 12.5615 87.8258 10.0857 88.8637 7.775L91.3896 8.90958ZM90.6359 20.4511C91.0543 22.543 91.7015 24.7267 92.5272 26.985L89.9265 27.9358C89.065 25.5794 88.3732 23.2568 87.9206 20.9943L90.6359 20.4511ZM94.6177 32.0812C95.5402 34.1334 96.5637 36.2204 97.6501 38.3296L95.1884 39.5975C94.0864 37.458 93.0401 35.3254 92.0921 33.2165L94.6177 32.0812ZM100.268 43.2612C101.379 45.3061 102.516 47.3537 103.648 49.4003L101.225 50.7406C100.096 48.6997 98.9524 46.6399 97.8348 44.5833L100.268 43.2612ZM106.352 54.3302C107.492 56.4382 108.594 58.5316 109.616 60.5927L107.136 61.823C106.133 59.8015 105.047 57.739 103.916 55.6472L106.352 54.3302ZM112.022 65.762C113.011 68.0661 113.855 70.3245 114.482 72.5103L111.821 73.2743C111.234 71.23 110.435 69.0844 109.477 66.8549L112.022 65.762ZM115.607 78.2701C115.841 80.9153 115.611 83.4491 114.724 85.7815L112.136 84.797C112.839 82.9465 113.056 80.8508 112.849 78.5138L115.607 78.2701ZM111.272 90.8946C110.39 91.7267 109.372 92.4912 108.213 93.1871L106.787 90.8129C107.792 90.2097 108.648 89.5632 109.371 88.8807L111.272 90.8946ZM108.213 93.1871C107.043 93.8892 106.185 94.5932 105.561 95.2933L103.494 93.4511C104.342 92.4985 105.434 91.6253 106.787 90.8129L108.213 93.1871ZM103.974 99.9243C104.049 101.895 104.728 104.153 105.653 106.931L103.026 107.806C102.119 105.083 101.299 102.457 101.207 100.029L103.974 99.9243ZM107.537 112.788C108.213 115.129 108.811 117.683 109.13 120.466L106.379 120.781C106.083 118.197 105.524 115.8 104.876 113.556L107.537 112.788ZM109.313 126.795C109.238 128.068 109.093 129.379 108.865 130.731L106.135 130.269C106.346 129.019 106.48 127.807 106.549 126.633L109.313 126.795ZM108.865 130.731C108.668 131.899 108.301 133.088 107.797 134.261L105.253 133.168C105.683 132.167 105.979 131.19 106.135 130.269L108.865 130.731ZM104.826 139.175C103.391 140.99 101.641 142.677 99.6667 144.072L98.0682 141.811C99.8181 140.574 101.377 139.073 102.655 137.457L104.826 139.175ZM94.5943 146.763C92.3342 147.591 89.9059 148.011 87.4083 147.841L87.5962 145.078C89.6594 145.219 91.699 144.875 93.6415 144.163L94.5943 146.763ZM81.7361 146.393C80.6748 145.91 79.6241 145.303 78.5907 144.563L80.2024 142.311C81.0958 142.951 81.9916 143.467 82.8835 143.873L81.7361 146.393ZM78.5907 144.563C77.6833 143.913 76.7751 143.323 75.8694 142.792L77.2708 140.403C78.2516 140.979 79.2298 141.615 80.2024 142.311L78.5907 144.563ZM71.2244 140.567C69.1047 139.781 67.0361 139.33 65.0586 139.206L65.2326 136.442C67.5074 136.585 69.8414 137.101 72.1872 137.971L71.2244 140.567ZM60.1156 139.617C58.1293 140.101 56.2708 140.979 54.5887 142.263L52.9089 140.062C54.8955 138.546 57.1028 137.501 59.4603 136.927L60.1156 139.617ZM51.1216 145.841C49.972 147.411 48.9605 149.274 48.1263 151.445L45.5416 150.452C46.454 148.078 47.5779 145.993 48.8875 144.205L51.1216 145.841ZM46.6588 156.413C46.4343 157.44 46.242 158.515 46.0841 159.639L43.3421 159.254C43.5092 158.064 43.7136 156.92 43.9536 155.822L46.6588 156.413Z" fill="#E4E4E4"/>
</svg>
