<svg width="139" height="101" viewBox="0 0 139 101" fill="none" xmlns="http://www.w3.org/2000/svg">
<path d="M129.613 0.675901C129.157 0.0614708 128.29 -0.0676626 127.676 0.387474C127.061 0.842603 126.932 1.70966 127.387 2.32409L129.613 0.675901ZM87.8863 68.4619L87.2912 67.2118L87.8863 68.4619ZM71.8177 66.7142L70.7468 67.5916L70.8215 67.6828L70.9105 67.76L71.8177 66.7142ZM14.2135 100.354C14.9615 100.513 15.6963 100.035 15.8548 99.2869L18.4365 87.0968C18.595 86.3487 18.117 85.6139 17.369 85.4555C16.6209 85.297 15.8861 85.775 15.7276 86.523L13.4327 97.3587L2.59709 95.0638C1.84904 94.9053 1.1142 95.3833 0.955769 96.1314C0.797339 96.8794 1.27532 97.6143 2.02336 97.7727L14.2135 100.354ZM14.0456 95.4983C13.6886 94.8221 12.8511 94.5633 12.1749 94.9202C11.4986 95.2772 11.2399 96.1148 11.5968 96.791L14.0456 95.4983ZM9.4034 91.7356C9.65232 92.4586 10.4402 92.8429 11.1632 92.594C11.8862 92.3451 12.2705 91.5572 12.0216 90.8342L9.4034 91.7356ZM10.5698 84.6771C10.4703 83.9189 9.77503 83.385 9.01689 83.4845C8.25876 83.584 7.72483 84.2792 7.82433 85.0374L10.5698 84.6771ZM7.55364 79.5335C7.52908 80.2978 8.12871 80.9372 8.89296 80.9618C9.6572 80.9863 10.2967 80.3867 10.3212 79.6224L7.55364 79.5335ZM11.1602 73.3487C11.3368 72.6047 10.8769 71.8585 10.133 71.6818C9.38902 71.5052 8.64274 71.9651 8.46611 72.7091L11.1602 73.3487ZM10.1582 67.4687C9.86659 68.1756 10.2032 68.985 10.9101 69.2766C11.6169 69.5682 12.4263 69.2315 12.7179 68.5247L10.1582 67.4687ZM15.6982 62.9332C16.1226 62.2971 15.951 61.4375 15.3149 61.0131C14.6788 60.5887 13.8192 60.7603 13.3948 61.3964L15.6982 62.9332ZM16.8092 57.0712C16.2887 57.6312 16.3207 58.5073 16.8808 59.0278C17.4409 59.5484 18.3169 59.5164 18.8375 58.9563L16.8092 57.0712ZM23.5936 54.7981C24.2191 54.3582 24.3695 53.4946 23.9297 52.8691C23.4898 52.2437 22.6262 52.0932 22.0007 52.5331L23.5936 54.7981ZM26.7854 49.7586C26.0925 50.0821 25.7931 50.9059 26.1165 51.5988C26.44 52.2917 27.2639 52.5911 27.9567 52.2677L26.7854 49.7586ZM33.9162 50.2748C34.6645 50.1174 35.1435 49.3832 34.986 48.635C34.8286 47.8867 34.0944 47.4077 33.3461 47.5652L33.9162 50.2748ZM38.8539 46.9308C38.0894 46.948 37.4836 47.5816 37.5008 48.3461C37.518 49.1105 38.1516 49.7163 38.9161 49.6991L38.8539 46.9308ZM45.1883 50.2592C45.9381 50.4091 46.6674 49.9227 46.8172 49.1729C46.9671 48.4231 46.4807 47.6938 45.7309 47.5439L45.1883 50.2592ZM51.0233 49.0536C50.3064 48.7874 49.5096 49.1527 49.2434 49.8695C48.9772 50.5863 49.3425 51.3832 50.0594 51.6494L51.0233 49.0536ZM55.8074 54.3795C56.4687 54.7633 57.3159 54.5384 57.6998 53.8771C58.0836 53.2158 57.8587 52.3685 57.1974 51.9847L55.8074 54.3795ZM61.7485 54.9981C61.1356 54.541 60.2681 54.6673 59.811 55.2802C59.3538 55.8932 59.4801 56.7606 60.0931 57.2178L61.7485 54.9981ZM65.0073 61.3788C65.5614 61.9057 66.4378 61.8837 66.9647 61.3296C67.4916 60.7754 67.4695 59.8991 66.9154 59.3722L65.0073 61.3788ZM70.6697 63.2463C70.1593 62.677 69.284 62.6292 68.7146 63.1396C68.1453 63.65 68.0975 64.5253 68.608 65.0947L70.6697 63.2463ZM73.3838 70.0009C73.9382 70.5274 74.8146 70.5048 75.3411 69.9503C75.8676 69.3959 75.845 68.5196 75.2905 67.993L73.3838 70.0009ZM79.0429 71.8982C78.5432 71.3195 77.6689 71.2555 77.0902 71.7553C76.5115 72.2551 76.4475 73.1294 76.9473 73.7081L79.0429 71.8982ZM80.5896 78.9141C80.9388 79.5943 81.7733 79.8627 82.4536 79.5135C83.1338 79.1643 83.4022 78.3298 83.053 77.6495L80.5896 78.9141ZM84.6628 83.3355C84.6494 82.571 84.0188 81.9621 83.2542 81.9754C82.4897 81.9888 81.8808 82.6195 81.8942 83.384L84.6628 83.3355ZM79.5187 87.8277C78.8831 88.2528 78.7124 89.1126 79.1375 89.7482C79.5626 90.3838 80.4224 90.5545 81.058 90.1294L79.5187 87.8277ZM75.3995 92.0304C76.1607 91.9589 76.7198 91.2837 76.6482 90.5224C76.5767 89.7611 75.9015 89.202 75.1402 89.2736L75.3995 92.0304ZM69.5512 88.2253C68.9031 87.8195 68.0488 88.0159 67.643 88.664C67.2372 89.312 67.4336 90.1664 68.0816 90.5722L69.5512 88.2253ZM65.4146 84.5968C65.2572 85.3451 65.7363 86.0792 66.4846 86.2366C67.2328 86.3939 67.967 85.9149 68.1243 85.1666L65.4146 84.5968ZM71.3562 80.3809C71.9071 79.8506 71.9237 78.9741 71.3934 78.4232C70.8631 77.8724 69.9867 77.8557 69.4358 78.386L71.3562 80.3809ZM73.7029 74.9098C73.0795 75.3526 72.933 76.2169 73.3757 76.8403C73.8184 77.4637 74.6827 77.6102 75.3062 77.1675L73.7029 74.9098ZM80.8069 73.6922C81.4708 73.3129 81.7015 72.4672 81.3222 71.8033C80.9428 71.1393 80.0971 70.9086 79.4332 71.288L80.8069 73.6922ZM84.1855 68.7365C83.5035 69.0822 83.2309 69.9154 83.5766 70.5974C83.9223 71.2794 84.7554 71.5521 85.4374 71.2064L84.1855 68.7365ZM91.2107 68.481C91.9143 68.1817 92.2422 67.3687 91.9429 66.6651C91.6437 65.9614 90.8306 65.6336 90.127 65.9328L91.2107 68.481ZM94.7577 64.1697C94.0326 64.4124 93.6416 65.197 93.8844 65.9221C94.1271 66.6472 94.9117 67.0382 95.6368 66.7954L94.7577 64.1697ZM101.346 65.2398C102.094 65.0825 102.574 64.3485 102.416 63.6002C102.259 62.8519 101.525 62.3727 100.777 62.53L101.346 65.2398ZM105.688 61.7239C104.929 61.8177 104.39 62.5089 104.483 63.2677C104.577 64.0266 105.268 64.5658 106.027 64.472L105.688 61.7239ZM112.051 63.8467C112.811 63.7615 113.358 63.0764 113.273 62.3166C113.188 61.5567 112.503 61.0097 111.743 61.0949L112.051 63.8467ZM116.336 60.3094C115.596 60.4997 115.15 61.2544 115.34 61.995C115.531 62.7355 116.285 63.1815 117.026 62.9911L116.336 60.3094ZM122.975 60.5433C123.635 60.1581 123.858 59.3103 123.473 58.6498C123.088 57.9893 122.24 57.7662 121.58 58.1514L122.975 60.5433ZM125.35 55.4725C124.763 55.9621 124.683 56.8352 125.173 57.4225C125.663 58.0098 126.536 58.089 127.123 57.5994L125.35 55.4725ZM131.717 53.0259C132.196 52.4298 132.101 51.5583 131.505 51.0795C130.908 50.6008 130.037 50.6959 129.558 51.2921L131.717 53.0259ZM132.19 47.2734C131.832 47.9491 132.09 48.787 132.766 49.1448C133.442 49.5027 134.28 49.245 134.637 48.5693L132.19 47.2734ZM137.107 42.4376C137.322 41.7039 136.902 40.9346 136.168 40.7194C135.435 40.5042 134.665 40.9246 134.45 41.6583L137.107 42.4376ZM135.498 36.8867C135.383 37.6427 135.903 38.3487 136.659 38.4636C137.415 38.5786 138.121 38.059 138.236 37.303L135.498 36.8867ZM138.744 30.7882C138.75 30.0236 138.135 29.3985 137.371 29.3921C136.606 29.3857 135.981 30.0003 135.975 30.7649L138.744 30.7882ZM135.764 25.8357C135.835 26.5971 136.509 27.1572 137.271 27.0869C138.032 27.0165 138.592 26.3423 138.522 25.5809L135.764 25.8357ZM137.542 19.1526C137.383 18.4047 136.648 17.9274 135.9 18.0865C135.152 18.2456 134.674 18.9808 134.833 19.7288L137.542 19.1526ZM133.581 14.9459C133.809 15.6757 134.586 16.0822 135.316 15.8539C136.045 15.6257 136.452 14.849 136.224 14.1193L133.581 14.9459ZM133.9 8.03645C133.582 7.34121 132.76 7.03563 132.065 7.35393C131.369 7.67223 131.064 8.49386 131.382 9.1891L133.9 8.03645ZM129.087 4.85263C129.485 5.50516 130.337 5.71104 130.99 5.31246C131.642 4.91387 131.848 4.06178 131.45 3.40924L129.087 4.85263ZM15.6609 98.2451C15.0703 97.3371 14.5325 96.4207 14.0456 95.4983L11.5968 96.791C12.1233 97.7883 12.7037 98.7771 13.3397 99.7549L15.6609 98.2451ZM12.0216 90.8342C11.3166 88.7867 10.8387 86.7263 10.5698 84.6771L7.82433 85.0374C8.11725 87.2693 8.63749 89.5111 9.4034 91.7356L12.0216 90.8342ZM10.3212 79.6224C10.3898 77.4882 10.6763 75.3872 11.1602 73.3487L8.46611 72.7091C7.9401 74.9247 7.6283 77.2101 7.55364 79.5335L10.3212 79.6224ZM12.7179 68.5247C13.5291 66.5585 14.53 64.6841 15.6982 62.9332L13.3948 61.3964C12.1258 63.2985 11.0389 65.3339 10.1582 67.4687L12.7179 68.5247ZM18.8375 58.9563C20.2792 57.4051 21.8726 56.0083 23.5936 54.7981L22.0007 52.5331C20.1178 53.8572 18.3791 55.3821 16.8092 57.0712L18.8375 58.9563ZM27.9567 52.2677C29.844 51.3866 31.8379 50.7121 33.9162 50.2748L33.3461 47.5652C31.0549 48.0472 28.8597 48.7903 26.7854 49.7586L27.9567 52.2677ZM38.9161 49.6991C40.9498 49.6534 43.0461 49.8311 45.1883 50.2592L45.7309 47.5439C43.3917 47.0764 41.0926 46.8805 38.8539 46.9308L38.9161 49.6991ZM50.0594 51.6494C51.952 52.3522 53.8718 53.256 55.8074 54.3795L57.1974 51.9847C55.1317 50.7857 53.0697 49.8135 51.0233 49.0536L50.0594 51.6494ZM60.0931 57.2178C61.7283 58.4374 63.3688 59.8208 65.0073 61.3788L66.9154 59.3722C65.2012 57.7422 63.4767 56.2871 61.7485 54.9981L60.0931 57.2178ZM68.608 65.0947C69.3225 65.8918 70.0357 66.7238 70.7468 67.5916L72.8886 65.8367C72.1522 64.9379 71.4124 64.0747 70.6697 63.2463L68.608 65.0947ZM70.9105 67.76C71.7968 68.5288 72.6201 69.2757 73.3838 70.0009L75.2905 67.993C74.4947 67.2372 73.6404 66.4624 72.7249 65.6683L70.9105 67.76ZM76.9473 73.7081C78.6242 75.6497 79.8038 77.3835 80.5896 78.9141L83.053 77.6495C82.1445 75.8798 80.8278 73.9649 79.0429 71.8982L76.9473 73.7081ZM81.8942 83.384C81.9295 85.4022 80.9913 86.8428 79.5187 87.8277L81.058 90.1294C83.1987 88.6977 84.7169 86.4251 84.6628 83.3355L81.8942 83.384ZM75.1402 89.2736C72.9718 89.4775 70.8871 89.0618 69.5512 88.2253L68.0816 90.5722C70.0705 91.8175 72.8095 92.274 75.3995 92.0304L75.1402 89.2736ZM68.1243 85.1666C68.369 84.003 69.2607 82.3982 71.3562 80.3809L69.4358 78.386C67.1478 80.5886 65.8211 82.6634 65.4146 84.5968L68.1243 85.1666ZM75.3062 77.1675C76.8478 76.0727 78.6698 74.9133 80.8069 73.6922L79.4332 71.288C77.2307 72.5464 75.3302 73.7542 73.7029 74.9098L75.3062 77.1675ZM85.4374 71.2064C86.4041 70.7164 87.4182 70.2182 88.4815 69.7119L87.2912 67.2118C86.2083 67.7274 85.1737 68.2357 84.1855 68.7365L85.4374 71.2064ZM88.4815 69.7119C89.4224 69.2639 90.3315 68.8549 91.2107 68.481L90.127 65.9328C89.211 66.3224 88.2665 66.7475 87.2912 67.2118L88.4815 69.7119ZM95.6368 66.7954C97.7039 66.1034 99.5936 65.608 101.346 65.2398L100.777 62.53C98.9248 62.9191 96.9314 63.442 94.7577 64.1697L95.6368 66.7954ZM106.027 64.472C108.229 64.2 110.059 64.07 112.051 63.8467L111.743 61.0949C109.961 61.2947 107.834 61.4588 105.688 61.7239L106.027 64.472ZM117.026 62.9911C118.971 62.4911 120.92 61.7416 122.975 60.5433L121.58 58.1514C119.762 59.2115 118.053 59.8681 116.336 60.3094L117.026 62.9911ZM127.123 57.5994C127.882 56.9663 128.66 56.268 129.46 55.4973L127.54 53.5027C126.783 54.2315 126.054 54.8852 125.35 55.4725L127.123 57.5994ZM129.46 55.4973C130.271 54.7171 131.022 53.8914 131.717 53.0259L129.558 51.2921C128.935 52.0679 128.263 52.8062 127.54 53.5027L129.46 55.4973ZM134.637 48.5693C135.664 46.6308 136.481 44.5729 137.107 42.4376L134.45 41.6583C133.872 43.631 133.122 45.5139 132.19 47.2734L134.637 48.5693ZM138.236 37.303C138.561 35.1656 138.725 32.9826 138.744 30.7882L135.975 30.7649C135.957 32.8374 135.802 34.8886 135.498 36.8867L138.236 37.303ZM138.522 25.5809C138.322 23.4162 137.991 21.2627 137.542 19.1526L134.833 19.7288C135.26 21.7354 135.575 23.7815 135.764 25.8357L138.522 25.5809ZM136.224 14.1193C135.563 12.0073 134.784 9.96736 133.9 8.03645L131.382 9.1891C132.216 11.0096 132.954 12.9403 133.581 14.9459L136.224 14.1193ZM131.45 3.40924C130.866 2.45424 130.253 1.54085 129.613 0.675901L127.387 2.32409C127.976 3.11894 128.544 3.96362 129.087 4.85263L131.45 3.40924Z" fill="#E4E4E4"/>
</svg>
