<svg width="137" height="53" viewBox="0 0 137 53" fill="none" xmlns="http://www.w3.org/2000/svg">
<path d="M1.30586 2.20145C0.918463 1.54221 1.13884 0.693748 1.79808 0.306353C2.45732 -0.0810387 3.30579 0.13934 3.69318 0.798582L1.30586 2.20145ZM126.479 51.979C125.938 52.5197 125.061 52.5197 124.521 51.979L115.71 43.1681C115.169 42.6274 115.169 41.7508 115.71 41.2101C116.25 40.6694 117.127 40.6694 117.668 41.2101L125.5 49.042L133.331 41.2101C133.872 40.6694 134.749 40.6694 135.289 41.2101C135.83 41.7508 135.83 42.6274 135.289 43.1681L126.479 51.979ZM5.52744 3.63144C5.97123 4.2541 5.82623 5.11865 5.20357 5.56244C4.5809 6.00624 3.71636 5.86124 3.27256 5.23857L5.52744 3.63144ZM6.93565 9.64134C6.40302 9.09273 6.41597 8.21621 6.96458 7.68358C7.51319 7.15094 8.38971 7.16389 8.92234 7.7125L6.93565 9.64134ZM13.9883 11.9929C14.6178 12.4268 14.7765 13.2889 14.3426 13.9185C13.9086 14.5481 13.0465 14.7067 12.4169 14.2728L13.9883 11.9929ZM17.3672 17.163C16.6806 16.8263 16.3971 15.9968 16.7337 15.3103C17.0704 14.6238 17.8999 14.3402 18.5864 14.6769L17.3672 17.163ZM24.8254 17.128C25.5562 17.353 25.9663 18.1278 25.7413 18.8586C25.5163 19.5894 24.7415 19.9994 24.0107 19.7744L24.8254 17.128ZM29.5078 21.1582C28.7582 21.0077 28.2724 20.278 28.4229 19.5283C28.5734 18.7786 29.3031 18.2929 30.0528 18.4433L29.5078 21.1582ZM36.7602 19.4367C37.521 19.5138 38.0752 20.193 37.9981 20.9537C37.9211 21.7145 37.2419 22.2687 36.4811 22.1916L36.7602 19.4367ZM42.0884 22.5872C41.3245 22.5548 40.7314 21.9092 40.7639 21.1452C40.7963 20.3813 41.4419 19.7883 42.2059 19.8207L42.0884 22.5872ZM49.0605 19.9163C49.8251 19.9077 50.4519 20.5205 50.4605 21.2851C50.4691 22.0497 49.8563 22.6765 49.0917 22.6851L49.0605 19.9163ZM54.6684 22.534C53.9044 22.5655 53.2596 21.9717 53.2281 21.2077C53.1966 20.4437 53.7905 19.7988 54.5545 19.7674L54.6684 22.534ZM61.4359 19.3946C62.1989 19.3453 62.8575 19.9239 62.9069 20.6869C62.9562 21.4499 62.3776 22.1085 61.6146 22.1579L61.4359 19.3946ZM67.1543 21.772C66.3917 21.8278 65.7283 21.2548 65.6725 20.4922C65.6168 19.7296 66.1898 19.0662 66.9524 19.0104L67.1543 21.772ZM73.8589 18.5055C74.6217 18.4517 75.2837 19.0264 75.3375 19.7891C75.3914 20.5518 74.8167 21.2138 74.054 21.2677L73.8589 18.5055ZM79.5594 20.9108C78.796 20.9544 78.1418 20.371 78.0981 19.6076C78.0544 18.8442 78.6378 18.19 79.4012 18.1463L79.5594 20.9108ZM86.3792 17.8532C87.1437 17.8354 87.7778 18.4407 87.7955 19.2051C87.8133 19.9695 87.208 20.6036 86.4436 20.6214L86.3792 17.8532ZM91.9229 20.6089C91.1585 20.5922 90.5523 19.959 90.5689 19.1945C90.5856 18.43 91.2189 17.8238 91.9833 17.8405L91.9229 20.6089ZM98.9964 18.2787C99.7564 18.3626 100.305 19.0468 100.221 19.8068C100.137 20.5668 99.4526 21.1149 98.6926 21.031L98.9964 18.2787ZM104.025 21.8956C103.278 21.7298 102.808 20.9903 102.973 20.2438C103.139 19.4974 103.879 19.0267 104.625 19.1924L104.025 21.8956ZM111.456 21.4069C112.153 21.7205 112.464 22.54 112.151 23.2374C111.837 23.9348 111.018 24.246 110.32 23.9325L111.456 21.4069ZM114.813 26.5729C114.204 26.1106 114.085 25.2421 114.547 24.633C115.009 24.024 115.878 23.9051 116.487 24.3675L114.813 26.5729ZM121.532 29.6607C121.964 30.291 121.804 31.1529 121.174 31.5857C120.543 32.0185 119.682 31.8584 119.249 31.228L121.532 29.6607ZM121.685 35.8564C121.404 35.1453 121.753 34.341 122.464 34.0599C123.175 33.7789 123.979 34.1275 124.26 34.8386L121.685 35.8564ZM126.151 41.7293C126.282 42.4827 125.777 43.1995 125.024 43.3303C124.27 43.4611 123.554 42.9564 123.423 42.203L126.151 41.7293ZM124.019 47.5332C123.976 46.7698 124.559 46.1156 125.322 46.0719C126.086 46.0283 126.74 46.6117 126.784 47.3751L124.019 47.5332ZM3.69318 0.798582C4.27735 1.79269 4.88931 2.73613 5.52744 3.63144L3.27256 5.23857C2.58639 4.27585 1.93034 3.26417 1.30586 2.20145L3.69318 0.798582ZM8.92234 7.7125C10.4985 9.33591 12.1918 10.7547 13.9883 11.9929L12.4169 14.2728C10.4748 12.9343 8.6417 11.3986 6.93565 9.64134L8.92234 7.7125ZM18.5864 14.6769C20.572 15.6506 22.6562 16.4602 24.8254 17.128L24.0107 19.7744C21.7168 19.0682 19.4959 18.2069 17.3672 17.163L18.5864 14.6769ZM30.0528 18.4433C32.2284 18.88 34.4684 19.2045 36.7602 19.4367L36.4811 22.1916C34.1126 21.9517 31.7829 21.6148 29.5078 21.1582L30.0528 18.4433ZM42.2059 19.8207C44.4595 19.9164 46.7481 19.9423 49.0605 19.9163L49.0917 22.6851C46.7386 22.7116 44.3997 22.6854 42.0884 22.5872L42.2059 19.8207ZM54.5545 19.7674C56.8401 19.6732 59.1372 19.5433 61.4359 19.3946L61.6146 22.1579C59.3016 22.3075 56.9819 22.4388 54.6684 22.534L54.5545 19.7674ZM66.9524 19.0104C69.2645 18.8414 71.5757 18.6668 73.8589 18.5055L74.054 21.2677C71.7747 21.4286 69.476 21.6023 67.1543 21.772L66.9524 19.0104ZM79.4012 18.1463C81.7637 18.0111 84.0949 17.9062 86.3792 17.8532L86.4436 20.6214C84.1992 20.6736 81.9006 20.7768 79.5594 20.9108L79.4012 18.1463ZM91.9833 17.8405C94.3927 17.8931 96.7373 18.0294 98.9964 18.2787L98.6926 21.031C96.5303 20.7923 94.2687 20.66 91.9229 20.6089L91.9833 17.8405ZM104.625 19.1924C107.039 19.7285 109.328 20.4503 111.456 21.4069L110.32 23.9325C108.393 23.0662 106.289 22.3984 104.025 21.8956L104.625 19.1924ZM116.487 24.3675C118.403 25.8221 120.097 27.5714 121.532 29.6607L119.249 31.228C117.985 29.388 116.498 27.8527 114.813 26.5729L116.487 24.3675ZM124.26 34.8386C125.078 36.9065 125.711 39.1971 126.151 41.7293L123.423 42.203C123.012 39.8349 122.425 37.7291 121.685 35.8564L124.26 34.8386ZM126.784 47.3751C126.85 48.5404 126.884 49.7482 126.884 51L124.115 51C124.115 49.7979 124.083 48.6429 124.019 47.5332L126.784 47.3751Z" fill="#E4E4E4"/>
</svg>
