<svg width="81" height="178" viewBox="0 0 81 178" fill="none" xmlns="http://www.w3.org/2000/svg">
<path d="M54.3436 176.795C53.6334 177.078 52.8279 176.732 52.5444 176.022L47.9241 164.45C47.6406 163.74 47.9864 162.934 48.6965 162.651C49.4067 162.367 50.2122 162.713 50.4957 163.423L54.6026 173.71L64.8891 169.603C65.5992 169.319 66.4047 169.665 66.6882 170.375C66.9718 171.085 66.6259 171.891 65.9158 172.174L54.3436 176.795ZM37.9994 52.9998L39.2359 52.377L37.9994 52.9998ZM68.2633 1.82746C68.9108 1.42074 69.7654 1.61594 70.1721 2.26343C70.5788 2.91093 70.3836 3.76555 69.7361 4.17225L68.2633 1.82746ZM53.9785 171.537C54.2618 170.827 55.0672 170.481 55.7774 170.764C56.4876 171.048 56.8337 171.853 56.5504 172.563L53.9785 171.537ZM58.6382 166.886C58.3968 167.611 57.6129 168.004 56.8874 167.762C56.1618 167.521 55.7694 166.737 56.0108 166.011L58.6382 166.886ZM57.9427 158.981C58.0987 158.232 58.832 157.752 59.5805 157.908C60.3291 158.064 60.8094 158.797 60.6535 159.546L57.9427 158.981ZM61.5112 153.455C61.4596 154.217 60.7993 154.794 60.0365 154.742C59.2736 154.691 58.6969 154.031 58.7485 153.268L61.5112 153.455ZM58.4724 146.133C58.3585 145.377 58.8791 144.672 59.6352 144.558C60.3913 144.444 61.0966 144.965 61.2105 145.721L58.4724 146.133ZM59.7649 139.702C60.0035 140.429 59.6081 141.211 58.8816 141.45C58.1552 141.688 57.3728 141.293 57.1342 140.567L59.7649 139.702ZM54.3099 133.903C53.9618 133.222 54.2316 132.388 54.9124 132.04C55.5933 131.692 56.4274 131.961 56.7754 132.642L54.3099 133.903ZM53.7867 127.359C54.1873 128.01 53.984 128.863 53.3327 129.264C52.6814 129.664 51.8287 129.461 51.4281 128.81L53.7867 127.359ZM47.3577 122.651C46.9192 122.024 47.0716 121.161 47.698 120.722C48.3244 120.284 49.1877 120.436 49.6262 121.063L47.3577 122.651ZM46.1099 116.194C46.5654 116.809 46.4367 117.676 45.8225 118.131C45.2083 118.587 44.3412 118.458 43.8857 117.844L46.1099 116.194ZM39.4015 111.929C38.9344 111.324 39.0465 110.454 39.6519 109.987C40.2574 109.52 41.1268 109.632 41.5938 110.238L39.4015 111.929ZM37.9114 105.506C38.3831 106.108 38.2776 106.978 37.6758 107.45C37.074 107.922 36.2037 107.816 35.732 107.214L37.9114 105.506ZM31.0557 101.485C30.5386 100.922 30.5761 100.046 31.1394 99.5292C31.7027 99.0121 32.5785 99.0496 33.0956 99.6129L31.0557 101.485ZM28.502 95.34C29.1069 95.8078 29.218 96.6774 28.7501 97.2822C28.2823 97.887 27.4128 97.9981 26.8079 97.5303L28.502 95.34ZM20.656 94.1989C19.9242 93.977 19.5109 93.204 19.7328 92.4722C19.9546 91.7405 20.7277 91.3271 21.4594 91.549L20.656 94.1989ZM14.8652 91.0696C15.6189 90.9409 16.3343 91.4476 16.463 92.2013C16.5916 92.955 16.085 93.6704 15.3312 93.7991L14.8652 91.0696ZM9.47131 96.8624C8.92118 97.3935 8.0447 97.3781 7.51363 96.8279C6.98256 96.2778 6.998 95.4013 7.54813 94.8703L9.47131 96.8624ZM3.79886 100.183C4.12379 99.4908 4.9483 99.1931 5.64047 99.5181C6.33264 99.843 6.63033 100.668 6.30541 101.36L3.79886 100.183ZM4.6761 108.102C4.65106 108.866 4.01124 109.465 3.24702 109.44C2.48279 109.415 1.88355 108.775 1.90859 108.011L4.6761 108.102ZM2.88343 114.457C2.62421 113.737 2.99723 112.944 3.71659 112.685C4.43595 112.426 5.22924 112.799 5.48846 113.518L2.88343 114.457ZM9.39286 118.911C9.99853 119.378 10.1112 120.247 9.64447 120.853C9.17775 121.458 8.30841 121.571 7.70273 121.104L9.39286 118.911ZM13.5624 123.953C12.8252 123.75 12.3919 122.988 12.5947 122.251C12.7975 121.514 13.5595 121.081 14.2968 121.283L13.5624 123.953ZM21.1692 122.156C21.9326 122.199 22.5162 122.853 22.4728 123.617C22.4293 124.38 21.7752 124.964 21.0118 124.92L21.1692 122.156ZM26.5856 125.081C25.821 125.08 25.2015 124.46 25.202 123.696C25.2024 122.931 25.8226 122.311 26.5873 122.312L26.5856 125.081ZM33.3545 122.073C34.1172 122.018 34.7799 122.592 34.8348 123.355C34.8896 124.117 34.3158 124.78 33.5531 124.835L33.3545 122.073ZM39.1064 124.265C38.3485 124.367 37.6518 123.835 37.5502 123.077C37.4486 122.319 37.9806 121.623 38.7384 121.521L39.1064 124.265ZM45.3923 120.347C46.1388 120.181 46.878 120.652 47.0434 121.399C47.2087 122.145 46.7376 122.885 45.991 123.05L45.3923 120.347ZM51.4122 121.632C50.6807 121.855 49.9073 121.442 49.6847 120.711C49.4622 119.979 49.8748 119.206 50.6064 118.983L51.4122 121.632ZM56.909 116.677C57.6101 116.372 58.4258 116.693 58.731 117.394C59.0361 118.095 58.7152 118.911 58.0141 119.216L56.909 116.677ZM63.0615 116.68C62.3996 117.063 61.5527 116.837 61.1698 116.175C60.7869 115.513 61.0131 114.666 61.675 114.283L63.0615 116.68ZM67.0912 110.487C67.6724 109.99 68.5463 110.059 69.0432 110.64C69.54 111.221 69.4716 112.095 68.8904 112.592L67.0912 110.487ZM72.9023 108.476C72.4243 109.073 71.553 109.169 70.9562 108.691C70.3594 108.213 70.2631 107.342 70.7412 106.745L72.9023 108.476ZM74.0367 101.197C74.3262 100.489 75.1346 100.15 75.8423 100.439C76.55 100.729 76.8891 101.537 76.5996 102.245L74.0367 101.197ZM78.1264 96.629C78.0169 97.3858 77.3147 97.9106 76.558 97.8012C75.8012 97.6917 75.2764 96.9895 75.3859 96.2328L78.1264 96.629ZM75.4129 89.9377C75.3079 89.1803 75.8368 88.4812 76.5941 88.3761C77.3515 88.2711 78.0507 88.8 78.1557 89.5574L75.4129 89.9377ZM76.644 84.2013C76.9577 84.8987 76.6467 85.7183 75.9494 86.032C75.2521 86.3457 74.4325 86.0347 74.1188 85.3373L76.644 84.2013ZM70.6964 80.4663C70.1555 79.9258 70.1553 79.0492 70.6958 78.5084C71.2363 77.9675 72.1129 77.9672 72.6538 78.5078L70.6964 80.4663ZM68.4273 75.0703C69.0594 75.5006 69.223 76.3618 68.7927 76.9939C68.3624 77.626 67.5012 77.7896 66.8691 77.3593L68.4273 75.0703ZM61.411 74.1164C60.7384 73.7528 60.4878 72.9127 60.8514 72.2401C61.215 71.5674 62.0551 71.3169 62.7277 71.6805L61.411 74.1164ZM58.1299 69.2413C58.8048 69.6007 59.0606 70.4392 58.7011 71.1141C58.3417 71.789 57.5032 72.0447 56.8283 71.6853L58.1299 69.2413ZM51.0991 68.4394C50.4487 68.0373 50.2474 67.1841 50.6495 66.5338C51.0516 65.8834 51.9048 65.6821 52.5551 66.0842L51.0991 68.4394ZM48.3898 63.2275C48.9958 63.6938 49.1091 64.5631 48.6428 65.1691C48.1766 65.7751 47.3073 65.8884 46.7013 65.4222L48.3898 63.2275ZM41.7348 60.8717C41.2218 60.3048 41.2654 59.4293 41.8324 58.9162C42.3993 58.4031 43.2748 58.4468 43.7879 59.0137L41.7348 60.8717ZM40.7765 55.0804C41.1891 55.7241 41.0018 56.5805 40.358 56.9931C39.7143 57.4057 38.8579 57.2184 38.4453 56.5746L40.7765 55.0804ZM35.3708 50.0883C35.1586 49.3537 35.582 48.5862 36.3166 48.3739C37.0512 48.1617 37.8188 48.5852 38.031 49.3198L35.3708 50.0883ZM37.363 44.1471C37.3474 44.9116 36.715 45.5187 35.9506 45.5031C35.1861 45.4876 34.579 44.8552 34.5946 44.0907L37.363 44.1471ZM35.9375 36.7477C36.1811 36.023 36.9662 35.6329 37.691 35.8765C38.4158 36.1202 38.8058 36.9053 38.5622 37.63L35.9375 36.7477ZM40.7407 32.6702C40.3785 33.3436 39.539 33.5959 38.8656 33.2337C38.1922 32.8715 37.9399 32.032 38.3021 31.3586L40.7407 32.6702ZM42.2358 25.2407C42.6925 24.6275 43.5599 24.5007 44.1732 24.9574C44.7864 25.4142 44.9132 26.2815 44.4565 26.8948L42.2358 25.2407ZM47.9608 22.6C47.4539 23.1725 46.5789 23.2255 46.0065 22.7185C45.434 22.2116 45.381 21.3366 45.8879 20.7641L47.9608 22.6ZM50.8779 15.5888C51.4296 15.0594 52.3061 15.0774 52.8355 15.6291C53.365 16.1808 53.3469 17.0573 52.7952 17.5867L50.8779 15.5888ZM56.925 13.8317C56.3463 14.3315 55.472 14.2676 54.9722 13.6889C54.4724 13.1102 54.5363 12.236 55.115 11.7362L56.925 13.8317ZM60.6717 7.21245C61.278 6.74655 62.1472 6.8604 62.6131 7.46672C63.079 8.07304 62.9652 8.94224 62.3588 9.40812L60.6717 7.21245ZM66.8686 6.09954C66.2418 6.53752 65.3787 6.38446 64.9407 5.75767C64.5027 5.13089 64.6558 4.26773 65.2826 3.82977L66.8686 6.09954ZM52.558 174.963C53.062 173.789 53.5355 172.648 53.9785 171.537L56.5504 172.563C56.0977 173.698 55.6149 174.861 55.1024 176.055L52.558 174.963ZM56.0108 166.011C56.8381 163.525 57.4811 161.196 57.9427 158.981L60.6535 159.546C60.1664 161.883 59.493 164.317 58.6382 166.886L56.0108 166.011ZM58.7485 153.268C58.9147 150.81 58.8224 148.457 58.4724 146.133L61.2105 145.721C61.5916 148.251 61.6904 150.805 61.5112 153.455L58.7485 153.268ZM57.1342 140.567C56.4233 138.402 55.4845 136.2 54.3099 133.903L56.7754 132.642C58.004 135.046 59.0021 137.38 59.7649 139.702L57.1342 140.567ZM51.4281 128.81C50.2225 126.849 48.8667 124.806 47.3577 122.651L49.6262 121.063C51.1589 123.252 52.5462 125.342 53.7867 127.359L51.4281 128.81ZM43.8857 117.844C42.4903 115.962 40.9959 113.996 39.4015 111.929L41.5938 110.238C43.1957 112.314 44.7012 114.295 46.1099 116.194L43.8857 117.844ZM35.732 107.214C34.9824 106.258 34.2143 105.281 33.4277 104.282L35.6029 102.569C36.3905 103.569 37.16 104.548 37.9114 105.506L35.732 107.214ZM33.4277 104.282C32.6283 103.267 31.8371 102.337 31.0557 101.485L33.0956 99.6129C33.9271 100.519 34.7633 101.503 35.6029 102.569L33.4277 104.282ZM26.8079 97.5303C24.6215 95.8392 22.5588 94.7758 20.656 94.1989L21.4594 91.549C23.7359 92.2392 26.0952 93.4784 28.502 95.34L26.8079 97.5303ZM15.3312 93.7991C13.0991 94.1802 11.1157 95.275 9.47131 96.8624L7.54813 94.8703C9.53829 92.949 12.0137 91.5564 14.8652 91.0696L15.3312 93.7991ZM6.30541 101.36C5.3216 103.455 4.75195 105.786 4.6761 108.102L1.90859 108.011C1.997 105.312 2.65836 102.612 3.79886 100.183L6.30541 101.36ZM5.48846 113.518C6.23701 115.595 7.5126 117.462 9.39286 118.911L7.70273 121.104C5.37309 119.309 3.79729 116.993 2.88343 114.457L5.48846 113.518ZM14.2968 121.283C15.3546 121.574 16.517 121.786 17.7905 121.904L17.536 124.661C16.1126 124.53 14.7887 124.29 13.5624 123.953L14.2968 121.283ZM17.7905 121.904C18.9157 122.008 20.0426 122.092 21.1692 122.156L21.0118 124.92C19.8529 124.854 18.6937 124.768 17.536 124.661L17.7905 121.904ZM26.5873 122.312C28.8624 122.313 31.1234 122.233 33.3545 122.073L33.5531 124.835C31.2543 125 28.9265 125.082 26.5856 125.081L26.5873 122.312ZM38.7384 121.521C41.01 121.216 43.2338 120.825 45.3923 120.347L45.991 123.05C43.7527 123.546 41.4517 123.951 39.1064 124.265L38.7384 121.521ZM50.6064 118.983C52.8102 118.313 54.9182 117.543 56.909 116.677L58.0141 119.216C55.918 120.128 53.7095 120.934 51.4122 121.632L50.6064 118.983ZM61.675 114.283C63.6629 113.133 65.4773 111.866 67.0912 110.487L68.8904 112.592C67.1344 114.093 65.1792 115.455 63.0615 116.68L61.675 114.283ZM70.7412 106.745C72.117 105.028 73.2263 103.178 74.0367 101.197L76.5996 102.245C75.6815 104.489 74.4318 106.567 72.9023 108.476L70.7412 106.745ZM75.3859 96.2328C75.5368 95.189 75.6148 94.1115 75.6148 92.9998L78.3838 92.9999C78.3838 94.2415 78.2967 95.4514 78.1264 96.629L75.3859 96.2328ZM75.6148 92.9998C75.6148 91.9079 75.5449 90.8898 75.4129 89.9377L78.1557 89.5574C78.3064 90.644 78.3839 91.7896 78.3838 92.9999L75.6148 92.9998ZM74.1188 85.3373C73.2822 83.4778 72.1197 81.8888 70.6964 80.4663L72.6538 78.5078C74.2789 80.1319 75.6503 81.9925 76.644 84.2013L74.1188 85.3373ZM66.8691 77.3593C65.1989 76.2223 63.3628 75.1714 61.411 74.1164L62.7277 71.6805C64.7083 72.7511 66.641 73.8543 68.4273 75.0703L66.8691 77.3593ZM56.8283 71.6853C54.9377 70.6783 53.0036 69.6169 51.0991 68.4394L52.5551 66.0842C54.3837 67.2147 56.2562 68.2434 58.1299 69.2413L56.8283 71.6853ZM46.7013 65.4222C44.9606 64.0829 43.2861 62.5859 41.7348 60.8717L43.7879 59.0137C45.2116 60.5868 46.7596 61.9733 48.3898 63.2275L46.7013 65.4222ZM38.4453 56.5746C37.8484 55.6434 37.286 54.6611 36.7629 53.6227L39.2359 52.377C39.7158 53.3296 40.2308 54.229 40.7765 55.0804L38.4453 56.5746ZM36.7629 53.6227C36.175 52.4556 35.714 51.2762 35.3708 50.0883L38.031 49.3198C38.326 50.3409 38.724 51.3608 39.2359 52.377L36.7629 53.6227ZM34.5946 44.0907C34.6452 41.6068 35.1309 39.1474 35.9375 36.7477L38.5622 37.63C37.8301 39.8078 37.407 41.9876 37.363 44.1471L34.5946 44.0907ZM38.3021 31.3586C39.4335 29.255 40.7703 27.2083 42.2358 25.2407L44.4565 26.8948C43.0572 28.7735 41.7972 30.7059 40.7407 32.6702L38.3021 31.3586ZM45.8879 20.7641C47.4993 18.9448 49.186 17.2125 50.8779 15.5888L52.7952 17.5867C51.149 19.1665 49.5154 20.8448 47.9608 22.6L45.8879 20.7641ZM55.115 11.7362C57.0755 10.0429 58.966 8.52311 60.6717 7.21245L62.3588 9.40812C60.6887 10.6914 58.8399 12.1778 56.925 13.8317L55.115 11.7362ZM65.2826 3.82977C66.2003 3.18848 66.9416 2.69037 67.4552 2.35144C67.712 2.18196 67.912 2.05221 68.0488 1.96423C68.1172 1.92023 68.1698 1.88667 68.2058 1.86379C68.2238 1.85236 68.2377 1.8436 68.2473 1.83753C68.2521 1.83449 68.2558 1.83214 68.2585 1.83045C68.2598 1.8296 68.2609 1.82894 68.2617 1.82843C68.2621 1.8282 68.2624 1.82799 68.2627 1.82781C68.2628 1.82774 68.2629 1.82766 68.263 1.82761C68.2631 1.82758 68.2631 1.82753 68.2631 1.82752C68.2632 1.82749 68.2633 1.82746 68.9997 2.99985C69.7361 4.17225 69.7361 4.17222 69.7362 4.17221C69.7362 4.17221 69.7362 4.17218 69.7362 4.17216C69.7363 4.17215 69.7363 4.17215 69.7363 4.17215C69.7363 4.17215 69.7362 4.17219 69.736 4.17229C69.7358 4.17247 69.7352 4.17281 69.7344 4.17333C69.7327 4.17437 69.73 4.17608 69.7262 4.17847C69.7187 4.18324 69.7069 4.1907 69.691 4.2008C69.6592 4.22101 69.6109 4.25185 69.5468 4.29305C69.4187 4.37544 69.2278 4.49929 68.9803 4.6626C68.4853 4.98923 67.7645 5.47353 66.8686 6.09954L65.2826 3.82977Z" fill="#E4E4E4"/>
</svg>
