<svg width="132" height="20" viewBox="0 0 132 20" fill="none" xmlns="http://www.w3.org/2000/svg">
<path d="M8.06086 19.264C12.6929 19.264 15.3089 16.84 15.3089 12.16V1.84H11.3969V11.92C11.3969 15.064 10.3889 16.168 8.08486 16.168C5.73286 16.168 4.89286 14.92 4.89286 12.064V1.84H0.980856V12.304C0.980856 16.864 3.54886 19.264 8.06086 19.264ZM18.4379 19H21.9179V11.752C21.9179 9.904 23.0459 8.992 24.5339 8.992C26.0699 8.992 26.7419 9.808 26.7419 11.512V19H30.2219V11.008C30.2219 7.648 28.4699 6.16 25.9979 6.16C23.9099 6.16 22.5419 7.192 21.9179 8.44V6.448H18.4379V19ZM37.7635 19.264C41.0755 19.264 43.0435 17.848 43.0435 15.136C43.0435 12.448 41.3155 11.656 38.1715 11.2C36.3475 10.936 35.7475 10.624 35.7475 9.832C35.7475 9.064 36.3955 8.536 37.5235 8.536C38.7235 8.536 39.2995 9.016 39.4915 10.048H42.6835C42.3715 7.168 40.2835 6.16 37.4995 6.16C34.9315 6.16 32.5315 7.456 32.5315 10.072C32.5315 12.52 33.8275 13.48 37.1635 13.984C38.9635 14.248 39.7075 14.608 39.7075 15.472C39.7075 16.336 39.0835 16.84 37.7395 16.84C36.2275 16.84 35.6755 16.192 35.5315 15.064H32.2915C32.4115 17.776 34.3795 19.264 37.7635 19.264ZM50.9384 19.264C54.5864 19.264 56.7464 17.2 56.9384 14.224H53.7944C53.6264 15.832 52.4984 16.648 51.1064 16.648C49.1624 16.648 48.0344 15.352 48.0344 12.832V12.64C48.0344 10.24 49.2344 8.896 51.0344 8.896C52.4504 8.896 53.3384 9.568 53.5784 11.032H56.8664C56.5544 7.432 53.8664 6.16 50.9624 6.16C47.3864 6.16 44.4824 8.632 44.4824 12.688V12.88C44.4824 16.984 47.2664 19.264 50.9384 19.264ZM59.1254 19H62.6054V11.752C62.6054 9.904 63.7334 8.992 65.2214 8.992C66.7574 8.992 67.4294 9.808 67.4294 11.512V19H70.9094V11.008C70.9094 7.648 69.1574 6.16 66.6854 6.16C64.5974 6.16 63.2294 7.192 62.6054 8.44V0.759999H59.1254V19ZM79.747 16.624C77.779 16.624 76.675 15.184 76.675 12.784V12.592C76.675 10.192 77.827 8.8 79.747 8.8C81.691 8.8 82.819 10.24 82.819 12.64V12.808C82.819 15.184 81.691 16.624 79.747 16.624ZM79.723 19.264C83.491 19.264 86.347 16.744 86.347 12.784V12.592C86.347 8.68 83.515 6.16 79.747 6.16C75.979 6.16 73.123 8.728 73.123 12.664V12.856C73.123 16.768 75.979 19.264 79.723 19.264ZM94.536 16.624C92.568 16.624 91.464 15.184 91.464 12.784V12.592C91.464 10.192 92.616 8.8 94.536 8.8C96.48 8.8 97.608 10.24 97.608 12.64V12.808C97.608 15.184 96.48 16.624 94.536 16.624ZM94.512 19.264C98.28 19.264 101.136 16.744 101.136 12.784V12.592C101.136 8.68 98.304 6.16 94.536 6.16C90.768 6.16 87.912 8.728 87.912 12.664V12.856C87.912 16.768 90.768 19.264 94.512 19.264ZM103.565 19H107.021V0.759999H103.565V19ZM115.98 19.264C119.412 19.264 121.572 17.752 121.98 15.04H118.692C118.476 16.096 117.684 16.792 116.076 16.792C114.18 16.792 113.052 15.592 112.956 13.504H122.004V12.544C122.004 8.056 119.124 6.16 115.884 6.16C112.236 6.16 109.428 8.728 109.428 12.688V12.88C109.428 16.888 112.188 19.264 115.98 19.264ZM113.004 11.368C113.268 9.592 114.324 8.56 115.884 8.56C117.54 8.56 118.5 9.472 118.62 11.368H113.004ZM124.282 19H127.762V12.712C127.762 10.312 129.25 9.472 131.818 9.496V6.256C129.778 6.28 128.554 7.168 127.762 8.848V6.448H124.282V19Z" fill="white"/>
</svg>
