<svg width="312" height="142" viewBox="0 0 312 142" fill="none" xmlns="http://www.w3.org/2000/svg">
<path d="M46.7205 66.8256L35.1767 63.3695L41.6047 41.8992L18.1825 34.8868L11.7545 56.3571L0.210694 52.9011L15.7715 0.926075L27.3153 4.38217L21.288 24.5141L44.7102 31.5265L50.7375 11.3945L62.2813 14.8506L46.7205 66.8256ZM120.903 60.779C119.69 64.8314 117.937 68.3172 115.645 71.2365C113.39 74.1669 110.693 76.4786 107.553 78.1717C104.461 79.8388 101.042 80.8406 97.2953 81.1772C93.5485 81.5139 89.6118 81.0644 85.485 79.8289C81.4326 78.6157 77.9337 76.839 74.9884 74.4988C72.0431 72.1586 69.7183 69.4371 68.0141 66.3342C66.3582 63.2052 65.375 59.7915 65.0644 56.0931C64.791 52.4058 65.2609 48.536 66.4741 44.4836C67.654 40.5427 69.3768 37.0884 71.6426 34.1209C73.9568 31.1272 76.6653 28.7783 79.7682 27.0741C82.9194 25.3439 86.3628 24.329 90.0984 24.0295C93.8451 23.6929 97.7447 24.1312 101.797 25.3444C105.924 26.5799 109.46 28.3678 112.405 30.708C115.362 33.011 117.662 35.7455 119.307 38.9117C121 42.0517 121.972 45.5026 122.223 49.2642C122.523 52.9998 122.083 56.8381 120.903 60.779ZM109.415 57.3396C110.116 54.9973 110.407 52.6739 110.286 50.3694C110.214 48.0387 109.713 45.9239 108.783 44.025C107.853 42.126 106.53 40.454 104.816 39.009C103.15 37.5379 101.108 36.4406 98.6916 35.7171C96.2379 34.9825 93.9108 34.7719 91.7104 35.0854C89.5211 35.3617 87.5347 36.043 85.7511 37.1295C83.9674 38.2159 82.3866 39.7074 81.0086 41.6039C79.6789 43.4744 78.6634 45.5807 77.9622 47.923C77.2275 50.3767 76.9129 52.7131 77.0182 54.9322C77.1607 57.1625 77.673 59.2401 78.555 61.1651C79.4371 63.0901 80.7167 64.7696 82.394 66.2035C84.0824 67.6002 86.1534 68.6658 88.6072 69.4005C91.0238 70.124 93.3211 70.3662 95.4993 70.127C97.7257 69.8619 99.7549 69.1731 101.587 68.0606C103.419 66.9481 104.989 65.4938 106.296 63.6977C107.641 61.9127 108.68 59.7933 109.415 57.3396ZM178.311 90.6665C176.897 95.3881 174.082 98.434 169.863 99.8043C165.693 101.149 160.374 100.852 153.905 98.9156L124.906 90.2336L140.467 38.2586L167.402 46.3228C169.782 47.0352 172.087 47.9279 174.318 49.0009C176.597 50.0479 178.516 51.3515 180.074 52.9119C181.644 54.435 182.738 56.2614 183.356 58.391C183.974 60.5206 183.86 62.9982 183.014 65.8237C182.235 68.4262 180.716 70.5235 178.457 72.1158C176.198 73.708 173.208 74.494 169.487 74.4738C173.547 76.3375 176.277 78.6537 177.676 81.4222C179.123 84.1646 179.335 87.2461 178.311 90.6665ZM171.181 63.7394C171.515 62.6241 171.541 61.6595 171.258 60.8456C171.023 60.0056 170.571 59.2829 169.902 58.6773C169.281 58.0458 168.485 57.524 167.514 57.1119C166.581 56.711 165.631 56.3658 164.665 56.0764L149.105 51.4182L145.983 61.8466L161.542 66.5048C162.509 66.7942 163.492 67.0279 164.492 67.2057C165.541 67.3576 166.492 67.3589 167.347 67.2097C168.239 67.0717 169.008 66.7348 169.655 66.1992C170.35 65.6375 170.859 64.8176 171.181 63.7394ZM167.396 85.515C167.942 83.6932 167.586 82.1081 166.329 80.7594C165.083 79.3736 163.084 78.2689 160.333 77.4452L142.878 72.2193L139.555 83.317L157.01 88.5429C159.762 89.3665 162.038 89.5418 163.841 89.0687C165.644 88.5956 166.829 87.4111 167.396 85.515ZM188.773 93.0693C189.685 90.0207 191.299 87.6074 193.614 85.8293C195.94 84.014 198.651 82.7393 201.747 82.0053C204.88 81.2824 208.268 81.0612 211.911 81.3417C215.602 81.5961 219.233 82.2576 222.802 83.3261C224.772 83.9161 226.453 84.4597 227.843 84.957C229.234 85.4543 230.632 85.9944 232.037 86.5772L232.655 84.5138C233.467 81.7998 233.014 79.4564 231.296 77.4835C229.615 75.5218 227.064 74.0289 223.643 73.0049C220.52 72.0699 217.208 71.5644 213.707 71.4883C210.216 71.375 206.77 71.7208 203.37 72.5256L201.39 62.0888C205.4 61.1424 209.524 60.6959 213.762 60.7493C218.048 60.7766 222.366 61.4414 226.716 62.7437C229.541 63.5897 232.216 64.7349 234.741 66.1795C237.303 67.6352 239.445 69.4108 241.167 71.5063C242.927 73.613 244.106 76.0322 244.706 78.764C245.318 81.4586 245.111 84.5161 244.087 87.9365L233.652 122.791L222.22 119.368L224.507 111.728C221.839 114.008 218.487 115.395 214.451 115.888C210.451 116.392 206.407 116.032 202.317 114.807C199.789 114.05 197.497 112.979 195.44 111.594C193.41 110.257 191.783 108.656 190.559 106.79C189.335 104.925 188.522 102.838 188.119 100.53C187.764 98.1959 187.982 95.709 188.773 93.0693ZM208.362 105.375C210.629 106.054 212.832 106.41 214.97 106.442C217.155 106.448 219.161 106.178 220.985 105.63C222.821 105.046 224.384 104.156 225.673 102.962C226.999 101.78 227.924 100.315 228.447 98.5672L229.032 96.6153C227.299 95.7725 225.639 95.0932 224.051 94.5774C222.464 94.0616 221.057 93.62 219.83 93.2527C214.179 91.5608 209.681 91.0243 206.336 91.6433C203.028 92.2733 201.045 93.6851 200.389 95.8786C199.086 100.228 201.744 103.394 208.362 105.375ZM271.506 112.248C265.654 110.415 261.487 107.689 259.006 104.07C256.524 100.451 256.068 96.0203 257.638 90.7782C259.207 85.5361 262.071 82.0589 266.23 80.3467C270.388 78.6344 275.479 78.6799 281.502 80.4831L311.672 89.5157L296.111 141.491L284.567 138.035L290.578 117.958L285.894 116.556L261.591 131.156L246.2 126.548L271.506 112.248ZM269.215 94.1227C268.647 96.0188 268.894 97.6319 269.954 98.9621C271.025 100.255 272.695 101.241 274.962 101.92L293.7 107.53L297.006 96.488L278.268 90.8781C276 90.1992 274.058 90.124 272.441 90.6528C270.836 91.1444 269.76 92.301 269.215 94.1227Z" fill="#242938"/>
</svg>
