<svg width="411" height="247" viewBox="0 0 411 247" fill="none" xmlns="http://www.w3.org/2000/svg">
<path d="M33.7053 55.8319L25.44 51.4101L41.3542 21.6631L24.584 12.6913L8.66986 42.4384L0.404574 38.0166L20.3133 0.802847L53.614 18.6182L33.7053 55.8319ZM64.9538 24.6848L73.2191 29.1066L71.4248 32.4606C73.7501 31.89 75.8964 31.6859 77.8639 31.8482C79.8721 31.9982 81.9144 32.6286 83.9907 33.7394C86.3865 35.021 88.3457 36.7026 89.8685 38.7841C91.4055 40.8389 92.4432 43.1231 92.9816 45.6366C93.5343 48.1235 93.5885 50.8059 93.1444 53.684C92.7146 56.5354 91.7449 59.372 90.2353 62.1936C88.7116 65.0419 86.8829 67.436 84.7494 69.3761C82.6159 71.3161 80.3543 72.7596 77.9646 73.7066C75.5891 74.627 73.1202 75.0181 70.5579 74.8798C67.9955 74.7415 65.5165 74.0316 63.1207 72.7499C61.0444 71.6391 59.3938 70.2767 58.1687 68.6627C56.9703 67.0629 55.9632 65.1375 55.1475 62.8864L45.3426 81.2138L37.0773 76.792L64.9538 24.6848ZM58.6507 56.3381C59.0517 57.9564 59.8471 59.4775 61.0369 60.9015C62.2675 62.3131 63.5882 63.3963 64.9991 64.151C68.1135 65.8172 71.2333 66.0654 74.3585 64.8956C77.5104 63.74 80.0475 61.3654 81.97 57.7718C83.8926 54.1782 84.467 50.7365 83.6934 47.4467C82.9465 44.1711 81.0157 41.7002 77.9013 40.034C76.4905 39.2792 74.8564 38.7817 72.9992 38.5413C71.1829 38.2886 69.4903 38.4445 67.9215 39.0089L58.6507 56.3381ZM135.834 86.5882C134.282 89.4897 132.406 91.8758 130.207 93.7465C128.035 95.6314 125.62 96.9762 122.964 97.7808C120.349 98.573 117.588 98.8074 114.679 98.484C111.771 98.1607 108.839 97.2086 105.885 95.6279C102.983 94.0756 100.591 92.1795 98.7077 89.9395C96.8247 87.6996 95.4737 85.2649 94.6549 82.6356C93.8769 79.994 93.6558 77.2394 93.9916 74.3718C94.354 71.5185 95.3113 68.6411 96.8635 65.7396C98.3731 62.918 100.221 60.5514 102.408 58.6398C104.636 56.7159 107.064 55.3445 109.693 54.5257C112.363 53.6945 115.146 53.4539 118.04 53.8039C120.948 54.1272 123.853 55.0651 126.755 56.6173C129.709 58.1981 132.128 60.1084 134.011 62.3484C135.909 64.5617 137.239 67.0026 138.003 69.6708C138.807 72.3268 139.014 75.108 138.623 78.0145C138.273 80.9087 137.344 83.7666 135.834 86.5882ZM127.609 82.1878C128.506 80.5108 129.087 78.7845 129.352 77.009C129.658 75.2212 129.604 73.5314 129.188 71.9397C128.773 70.348 128.024 68.8687 126.94 67.5017C125.898 66.1223 124.512 64.9698 122.781 64.0441C121.025 63.1042 119.283 62.5834 117.557 62.4818C115.845 62.3535 114.226 62.5654 112.698 63.1175C111.17 63.6696 109.734 64.5619 108.39 65.7944C107.086 67.0145 105.986 68.463 105.089 70.14C104.149 71.8969 103.547 73.6293 103.284 75.3374C103.048 77.0596 103.116 78.7228 103.491 80.3268C103.865 81.9309 104.581 83.4093 105.637 84.7621C106.708 86.0882 108.122 87.2213 109.879 88.1612C111.609 89.0868 113.323 89.6271 115.021 89.782C116.759 89.9245 118.413 89.7135 119.982 89.1491C121.55 88.5846 122.972 87.7189 124.247 86.552C125.548 85.3994 126.669 83.9447 127.609 82.1878ZM162.097 87.7993C162.198 86.5866 162.075 85.6648 161.728 85.0339C161.407 84.4173 160.954 83.9523 160.368 83.639C159.756 83.3115 159.064 83.1978 158.291 83.298C157.545 83.4125 156.73 83.8492 155.844 84.6081C154.959 85.367 153.962 86.4943 152.854 87.9899C151.786 89.4731 150.626 91.386 149.373 93.7285C148.091 96.1242 147.13 98.1776 146.488 99.8887C145.887 101.587 145.51 103.029 145.356 104.213C145.202 105.398 145.284 106.332 145.603 107.016C145.948 107.714 146.427 108.227 147.039 108.555C147.625 108.868 148.263 108.987 148.954 108.911C149.671 108.85 150.506 108.441 151.459 107.684L162.097 87.7993ZM138.856 131.242L148.17 113.833C147.131 114.75 145.97 115.224 144.686 115.256C143.388 115.315 142.193 115.052 141.102 114.469C139.638 113.685 138.501 112.546 137.691 111.052C136.882 109.557 136.432 107.742 136.342 105.605C136.267 103.442 136.611 101.007 137.375 98.3001C138.112 95.5787 139.356 92.5809 141.108 89.3067C142.859 86.0325 144.662 83.3338 146.517 81.2105C148.346 79.073 150.166 77.462 151.979 76.3775C153.806 75.2664 155.559 74.6462 157.237 74.5169C158.93 74.3611 160.508 74.6748 161.972 75.458C163.063 76.0419 163.945 76.8901 164.616 78.0026C165.302 79.0885 165.552 80.3177 165.366 81.6902L174.7 64.2413L182.966 68.6631L173.631 86.112C174.696 85.2095 175.857 84.735 177.114 84.6887C178.412 84.63 179.607 84.8926 180.699 85.4765C182.189 86.2739 183.339 87.4199 184.149 88.9145C184.973 90.3824 185.43 92.1845 185.519 94.321C185.623 96.4308 185.293 98.8393 184.53 101.546C183.793 104.268 182.549 107.266 180.797 110.54C179.045 113.814 177.242 116.513 175.387 118.636C173.559 120.774 171.724 122.411 169.883 123.549C168.056 124.66 166.296 125.294 164.603 125.449C162.911 125.605 161.319 125.284 159.829 124.487C158.737 123.903 157.856 123.055 157.184 121.942C156.525 120.871 156.275 119.642 156.435 118.255L147.121 135.664L138.856 131.242ZM159.725 112.106C159.65 113.333 159.773 114.255 160.094 114.871C160.441 115.502 160.908 115.974 161.493 116.287C162.106 116.615 162.785 116.722 163.531 116.607C164.303 116.507 165.139 116.064 166.039 115.278C166.939 114.493 167.915 113.372 168.968 111.915C170.062 110.446 171.25 108.514 172.532 106.118C173.785 103.776 174.719 101.742 175.334 100.016C175.989 98.2786 176.387 96.8309 176.527 95.6733C176.667 94.5156 176.565 93.5876 176.219 92.8893C175.9 92.2052 175.435 91.6993 174.823 91.3718C174.237 91.0585 173.586 90.9325 172.868 90.9937C172.177 91.0692 171.342 91.4783 170.363 92.2211L159.725 112.106ZM192.863 121.104C191.896 123.873 191.968 126.65 193.079 129.436C194.232 132.21 196.525 134.515 199.959 136.352C202.647 137.791 205.197 138.624 207.609 138.853C210.061 139.069 212.376 138.869 214.554 138.254L215.667 146.348C211.99 147.462 208.572 147.739 205.414 147.179C202.282 146.634 199.132 145.514 195.964 143.819C193.089 142.281 190.67 140.371 188.708 138.088C186.745 135.805 185.314 133.328 184.415 130.656C183.531 127.957 183.203 125.146 183.432 122.221C183.688 119.311 184.592 116.405 186.145 113.503C187.654 110.682 189.508 108.336 191.708 106.465C193.948 104.582 196.382 103.231 199.011 102.412C201.682 101.581 204.471 101.327 207.379 101.65C210.302 101.947 213.214 102.872 216.115 104.424C219.123 106.033 221.574 108.012 223.468 110.36C225.376 112.682 226.675 115.277 227.366 118.146C228.083 121.029 228.179 124.145 227.655 127.494C227.144 130.815 225.942 134.247 224.048 137.787L192.863 121.104ZM218.592 125.521C219.448 122.898 219.236 120.319 217.955 117.785C216.689 115.224 214.751 113.246 212.142 111.851C209.534 110.455 206.799 109.934 203.94 110.287C201.095 110.614 198.818 111.861 197.111 114.029L218.592 125.521ZM260.308 170.23C256.631 171.344 253.226 171.628 250.094 171.083C246.989 170.551 243.892 169.46 240.804 167.808C237.69 166.142 235.104 164.159 233.047 161.86C231.017 159.576 229.558 157.118 228.672 154.487C227.827 151.843 227.566 149.067 227.889 146.159C228.239 143.265 229.204 140.34 230.785 137.385C232.295 134.564 234.156 132.204 236.369 130.307C238.624 128.397 241.005 127.018 243.514 126.169C246.063 125.307 248.685 124.981 251.381 125.191C254.091 125.373 256.67 126.12 259.119 127.43C261.674 128.797 263.612 130.519 264.933 132.595C266.253 134.67 266.791 136.961 266.546 139.466L269.43 134.076L276.817 138.028L267.546 155.357L260.159 151.405C261.911 148.131 262.401 145.038 261.631 142.127C260.901 139.203 259.099 136.972 256.224 135.434C255.079 134.821 253.74 134.413 252.206 134.208C250.713 133.992 249.17 134.091 247.578 134.506C246.013 134.936 244.479 135.724 242.975 136.871C241.471 138.018 240.15 139.656 239.01 141.786C237.9 143.862 237.271 145.837 237.125 147.71C236.993 149.557 237.196 151.258 237.734 152.812C238.312 154.354 239.198 155.77 240.392 157.059C241.626 158.336 243.029 159.394 244.599 160.234C247.288 161.673 249.838 162.506 252.249 162.735C254.701 162.951 257.016 162.751 259.194 162.136L260.308 170.23ZM304.948 194.112C301.271 195.226 297.866 195.51 294.735 194.965C291.629 194.433 288.533 193.342 285.445 191.69C282.33 190.023 279.745 188.041 277.688 185.742C275.657 183.458 274.199 181 273.313 178.369C272.467 175.725 272.206 172.949 272.53 170.041C272.88 167.147 273.845 164.222 275.426 161.267C276.935 158.446 278.797 156.086 281.01 154.189C283.264 152.279 285.646 150.9 288.154 150.051C290.704 149.189 293.326 148.863 296.021 149.073C298.731 149.255 301.31 150.002 303.759 151.312C306.315 152.679 308.253 154.401 309.573 156.476C310.893 158.552 311.431 160.843 311.187 163.348L314.07 157.958L321.457 161.91L312.186 179.239L304.8 175.287C306.551 172.013 307.042 168.92 306.271 166.009C305.541 163.085 303.739 160.854 300.864 159.316C299.72 158.703 298.38 158.295 296.846 158.09C295.353 157.874 293.811 157.973 292.219 158.388C290.654 158.818 289.119 159.606 287.616 160.753C286.112 161.9 284.79 163.538 283.651 165.668C282.54 167.744 281.912 169.719 281.765 171.592C281.633 173.439 281.836 175.14 282.374 176.694C282.953 178.236 283.839 179.652 285.033 180.941C286.267 182.218 287.669 183.276 289.24 184.116C291.928 185.554 294.478 186.388 296.89 186.617C299.342 186.833 301.657 186.633 303.835 186.018L304.948 194.112ZM332.797 167.976L341.062 172.398L327.37 197.993L355.716 180.238L366.098 185.792L346.189 223.006L337.924 218.584L352.407 191.512L322.471 210.317L312.888 205.19L332.797 167.976ZM376.599 220.786C372.421 218.482 369.667 215.759 368.335 212.616C367.004 209.473 367.342 206.025 369.35 202.271C371.358 198.518 374.08 196.311 377.515 195.649C380.951 194.987 384.824 195.81 389.137 198.117L410.738 209.674L390.829 246.887L382.564 242.466L390.254 228.091L386.9 226.297L366.113 233.665L355.093 227.769L376.599 220.786ZM377.658 206.613C376.932 207.971 376.87 209.239 377.472 210.417C378.089 211.568 379.209 212.578 380.833 213.447L394.249 220.625L398.478 212.719L385.062 205.541C383.438 204.673 381.969 204.315 380.655 204.467C379.355 204.594 378.356 205.309 377.658 206.613Z" fill="#242938"/>
</svg>
