<svg width="320" height="126" viewBox="0 0 320 126" fill="none" xmlns="http://www.w3.org/2000/svg">
<path d="M43.6954 65.5305H30.6095L15.3751 47.1223L10.7853 51.8098V65.5305H0.677856L0.677856 20.0226H10.7853V39.3098L28.9982 20.0226L42.8654 20.0226L21.8693 40.9211L43.6954 65.5305ZM97.9923 20.0226L78.3634 74.4172C76.8986 78.356 74.7664 81.0741 71.9669 82.5715C69.1674 84.0689 65.8309 84.8176 61.9572 84.8176C60.6225 84.8176 59.1902 84.6874 57.6603 84.4269C56.1303 84.1665 54.5353 83.7271 52.8751 83.1086L54.9747 73.8312C56.3745 74.3521 57.6603 74.7101 58.8322 74.9055C60.004 75.1333 61.0457 75.2473 61.9572 75.2473C64.9845 75.2473 67.0516 73.8801 68.1583 71.1457L69.965 66.7512L52.5822 20.0226H63.0802L75.5802 54.4465L87.1525 20.0226L97.9923 20.0226ZM109.858 20.0226H119.965V24.1242C121.886 22.3989 123.822 21.1131 125.776 20.2668C127.761 19.3879 130.024 18.9484 132.563 18.9484C135.492 18.9484 138.21 19.5506 140.717 20.7551C143.223 21.9269 145.372 23.5708 147.162 25.6867C148.953 27.77 150.369 30.2928 151.41 33.2551C152.452 36.1848 152.973 39.3749 152.973 42.8254C152.973 46.3085 152.452 49.5148 151.41 52.4445C150.369 55.3742 148.953 57.897 147.162 60.0129C145.372 62.0962 143.223 63.7238 140.717 64.8957C138.21 66.0676 135.492 66.6535 132.563 66.6535C130.024 66.6535 127.761 66.1978 125.776 65.2863C123.822 64.3749 121.886 63.0565 119.965 61.3312V83.7433H109.858V20.0226ZM119.965 53.3234C121.169 54.6581 122.699 55.6997 124.555 56.4484C126.443 57.1646 128.249 57.5226 129.975 57.5226C133.783 57.5226 136.876 56.1717 139.252 53.4699C141.661 50.7681 142.865 47.2199 142.865 42.8254C142.865 38.4308 141.661 34.8664 139.252 32.132C136.876 29.3976 133.783 28.0305 129.975 28.0305C128.249 28.0305 126.443 28.3885 124.555 29.1047C122.699 29.7883 121.169 30.7974 119.965 32.132V53.3234ZM205.854 59.0363C202.924 61.966 199.832 63.968 196.576 65.0422C193.354 66.1164 189.854 66.6535 186.078 66.6535C182.27 66.6535 178.803 66.0838 175.678 64.9445C172.585 63.8052 169.949 62.2101 167.768 60.1594C165.619 58.076 163.959 55.5695 162.787 52.6398C161.648 49.7101 161.078 46.4387 161.078 42.8254C161.078 39.3749 161.648 36.1848 162.787 33.2551C163.959 30.2928 165.522 27.77 167.475 25.6867C169.46 23.5708 171.788 21.9269 174.457 20.7551C177.126 19.5506 179.958 18.9484 182.953 18.9484C186.078 18.9484 188.796 19.5995 191.108 20.9016C193.419 22.2036 195.095 24.1079 196.137 26.6144V20.0226H205.17V41.2141H196.137C196.137 37.2101 195.03 34.02 192.817 31.6437C190.636 29.2349 187.787 28.0305 184.272 28.0305C182.872 28.0305 181.391 28.3234 179.828 28.9094C178.298 29.4627 176.882 30.3417 175.58 31.5461C174.311 32.7505 173.253 34.2805 172.406 36.1359C171.56 37.9914 171.137 40.2212 171.137 42.8254C171.137 45.3644 171.544 47.5617 172.358 49.4172C173.171 51.2401 174.229 52.7538 175.531 53.9582C176.866 55.1301 178.429 56.0252 180.219 56.6437C182.042 57.2297 183.914 57.5226 185.834 57.5226C189.122 57.5226 191.97 57.0181 194.379 56.009C196.82 54.9673 198.92 53.6001 200.678 51.9074L205.854 59.0363ZM247.553 51.5168C247.553 56.1392 246.088 59.6385 243.158 62.0148C240.229 64.3586 236.127 65.5305 230.854 65.5305H215.668V20.0226L225.727 20.0226V37.6496H230.951C236.16 37.6496 240.229 38.8052 243.158 41.1164C246.088 43.395 247.553 46.8618 247.553 51.5168ZM237.445 51.6144C237.445 49.9543 236.859 48.7336 235.688 47.9523C234.516 47.1385 232.937 46.7316 230.951 46.7316H225.727V56.4484H230.951C232.937 56.4484 234.516 56.0415 235.688 55.2277C236.859 54.4139 237.445 53.2095 237.445 51.6144ZM253.022 20.0226H263.129V65.5305H253.022V20.0226ZM317.914 37.9426C317.393 40.3189 316.645 42.7603 315.668 45.2668C314.724 47.7733 313.487 50.1984 311.957 52.5422L319.623 59.6223L313.324 66.8488L306.049 59.7199C303.705 61.8683 301.134 63.5611 298.334 64.798C295.535 66.035 292.442 66.6535 289.057 66.6535C286.387 66.6535 283.881 66.1978 281.537 65.2863C279.193 64.3749 277.175 63.1379 275.483 61.5754C273.79 60.0129 272.455 58.19 271.479 56.1066C270.502 53.9907 270.014 51.6958 270.014 49.2219C270.014 44.9575 270.795 41.4745 272.358 38.7726C273.953 36.0708 275.841 33.7596 278.022 31.8391C276.166 29.4953 274.734 27.1516 273.725 24.8078C272.716 22.4315 272.211 19.8762 272.211 17.1418C272.211 14.6678 272.651 12.4217 273.529 10.4035C274.408 8.35272 275.564 6.61119 276.996 5.17889C278.429 3.7466 280.105 2.65611 282.026 1.90741C283.979 1.12616 286.046 0.735535 288.227 0.735535C290.44 0.735535 292.507 1.07733 294.428 1.76093C296.381 2.41197 298.074 3.35598 299.506 4.59296C300.938 5.82994 302.045 7.32733 302.826 9.08514C303.64 10.843 304.047 12.8612 304.047 15.1398C304.047 17.3208 303.656 19.2902 302.875 21.048C302.126 22.7733 301.134 24.3358 299.897 25.7355C298.66 27.1353 297.276 28.4211 295.746 29.593C294.216 30.7648 292.686 31.8716 291.156 32.9133L305.024 46.048C305.837 44.4204 306.537 42.7277 307.123 40.9699C307.742 39.2121 308.279 37.438 308.734 35.6476L317.914 37.9426ZM289.74 57.5226C291.661 57.5226 293.435 57.1646 295.063 56.4484C296.723 55.6997 298.253 54.6906 299.652 53.4211L284.32 38.5285H284.223C283.018 39.798 282.026 41.2141 281.244 42.7766C280.496 44.3391 280.121 46.0969 280.121 48.05C280.121 50.8495 281.033 53.1281 282.856 54.8859C284.711 56.6437 287.006 57.5226 289.74 57.5226ZM282.318 17.1418C282.318 18.9321 282.481 20.5435 282.807 21.9758C283.165 23.4081 283.946 24.9543 285.151 26.6144C286.355 25.8332 287.478 25.0519 288.52 24.2707C289.594 23.4569 290.522 22.578 291.303 21.634C292.117 20.69 292.751 19.6808 293.207 18.6066C293.695 17.4999 293.94 16.2792 293.94 14.9445C293.94 13.4146 293.419 12.1776 292.377 11.2336C291.335 10.2896 290.082 9.81757 288.617 9.81757C286.697 9.81757 285.167 10.5174 284.027 11.9172C282.888 13.3169 282.318 15.0585 282.318 17.1418ZM43.6954 125.53H30.6095L15.3751 107.122L10.7853 111.81L10.7853 125.53H0.677856L0.677856 80.0226H10.7853L10.7853 99.3098L28.9982 80.0226H42.8654L21.8693 100.921L43.6954 125.53ZM95.9904 125.53H85.8829V106.732H65.3751V125.53H55.2677V80.0226H65.3751V97.6496H85.8829V80.0226H95.9904V125.53ZM109.858 80.0226H119.965V111.321L137.885 80.0226H150.58V125.53H140.473V92.425L121.576 125.53H109.858V80.0226ZM164.447 80.0226H207.563V88.5187H174.555V125.53H164.447V80.0226ZM219.037 80.0226H229.145V111.321L247.065 80.0226H259.76V125.53H249.652V92.425L230.756 125.53H219.037V80.0226Z" fill="#242938"/>
</svg>
