<svg width="299" height="244" viewBox="0 0 299 244" fill="none" xmlns="http://www.w3.org/2000/svg">
<path d="M58.6416 144.253L49.8659 149.262L31.5621 117.706L13.7598 127.974L32.0636 159.53L23.2878 164.538L0.470825 125.219L35.8246 104.809L58.6416 144.253Z" fill="#242938"/>
<path d="M47.86 97.7964L56.6358 92.7876L58.6416 96.2938C59.3939 93.7894 60.5222 91.7859 61.7758 90.0328C63.0295 88.2797 64.7847 86.7771 67.0413 85.5249C69.5487 84.0223 72.3068 83.271 75.0649 83.0205C77.823 82.7701 80.5811 83.1457 83.0884 84.0223C85.7212 84.8988 88.2285 86.4014 90.6105 88.4049C92.9925 90.4085 94.9984 92.9128 96.7536 95.9181C98.5087 98.9234 99.637 101.929 100.264 105.059C100.765 108.064 100.891 111.07 100.389 113.699C99.8877 116.454 98.8848 118.958 97.255 121.212C95.6252 123.466 93.6194 125.345 91.112 126.847C88.8554 128.1 86.7241 128.851 84.5928 129.101C82.4616 129.352 80.0796 129.101 77.5722 128.6L88.8554 148.009L80.0796 153.018L47.86 97.7964ZM73.4351 121.713C75.1902 122.214 76.9454 122.339 78.9513 122.089C80.9572 121.839 82.7123 121.212 84.2167 120.336C87.4763 118.458 89.4822 115.703 90.2344 112.197C90.9866 108.69 90.2344 104.934 87.9778 101.177C85.7212 97.4208 82.9631 94.9164 79.4528 93.6642C75.9424 92.5372 72.6829 92.9128 69.2979 94.7911C67.7935 95.6677 66.4145 96.9199 65.1608 98.4225C63.9071 99.9251 63.0295 101.678 62.6534 103.431L73.4351 121.713Z" fill="#242938"/>
<path d="M145.271 68.1194C147.026 71.2499 148.154 74.2552 148.656 77.3857C149.157 80.5161 149.032 83.3962 148.154 86.2762C147.402 89.1563 146.023 91.7859 144.017 94.2903C142.011 96.7947 139.504 98.9234 136.37 100.676C133.236 102.43 130.227 103.557 127.093 104.057C123.958 104.558 120.95 104.308 118.066 103.557C115.183 102.805 112.55 101.428 110.168 99.4243C107.786 97.4208 105.655 94.9164 103.9 91.9111C102.144 88.9059 101.016 85.9006 100.515 82.7701C100.013 79.6396 100.138 76.6343 100.891 73.7543C101.643 70.8743 103.022 68.1194 105.028 65.7402C107.034 63.2359 109.541 61.1071 112.55 59.3541C115.684 57.601 118.818 56.3488 121.953 55.9731C125.087 55.4723 128.096 55.7227 130.979 56.474C133.863 57.2253 136.495 58.728 139.003 60.6063C141.385 62.6098 143.516 65.1142 145.271 68.1194ZM136.495 73.1282C135.492 71.3751 134.239 69.8725 132.734 68.4951C131.23 67.2429 129.725 66.3663 127.97 65.7402C126.215 65.2394 124.46 64.9889 122.579 65.2394C120.699 65.4898 118.818 65.9907 117.063 67.1177C115.183 68.2446 113.678 69.4968 112.675 70.9995C111.547 72.5021 110.92 74.13 110.544 75.883C110.168 77.6361 110.168 79.3892 110.544 81.3927C110.92 83.271 111.672 85.1493 112.675 86.9023C113.804 88.7806 115.057 90.2833 116.436 91.5355C117.815 92.7876 119.445 93.6642 121.075 94.1651C122.705 94.6659 124.46 94.9164 126.34 94.6659C128.221 94.4155 129.976 93.7894 131.857 92.7877C133.737 91.7859 135.116 90.4085 136.245 89.0311C137.373 87.5284 138.125 85.9006 138.501 84.1475C138.877 82.3944 138.877 80.6414 138.501 78.7631C138.25 76.8848 137.498 75.0065 136.495 73.1282Z" fill="#242938"/>
<path d="M188.022 90.7841L177.24 72.2516C177.491 73.7543 177.24 75.1317 176.613 76.2587C175.861 77.5109 174.983 78.3874 173.855 79.1387C172.351 80.0153 170.595 80.3909 168.715 80.2657C166.834 80.1405 164.954 79.5144 162.948 78.3874C160.942 77.2604 158.936 75.5074 156.805 73.2534C154.799 70.9995 152.668 68.1194 150.662 64.7385C148.656 61.3576 147.152 58.1018 146.274 55.2218C145.396 52.3418 144.895 49.7121 145.02 47.4582C145.02 45.2042 145.522 43.2007 146.274 41.5729C147.152 39.945 148.28 38.6928 149.91 37.8163C151.038 37.1902 152.292 36.8145 153.796 36.8145C155.175 36.8145 156.429 37.3154 157.682 38.192L147.026 19.6595L155.802 14.6507L166.458 33.1832C166.207 31.6805 166.458 30.3031 167.085 29.1762C167.712 27.924 168.715 27.0474 169.843 26.4213C171.473 25.5448 173.103 25.0439 174.983 25.1691C176.864 25.2944 178.744 25.9204 180.75 27.0474C182.756 28.1744 184.762 29.8023 186.893 32.0562C188.899 34.3102 191.03 37.1902 193.036 40.5711C195.042 44.0773 196.547 47.2078 197.424 50.0878C198.302 52.9678 198.803 55.5975 198.803 57.9766C198.803 60.3558 198.427 62.2341 197.549 63.9872C196.672 65.615 195.544 66.8672 193.914 67.869C192.786 68.4951 191.532 68.8707 190.153 68.8707C188.774 68.8707 187.52 68.3698 186.266 67.4933L196.923 85.9006L188.022 90.7841ZM161.318 44.7034C160.315 43.952 159.312 43.4512 158.56 43.4512C157.808 43.4512 157.056 43.5764 156.429 43.952C155.802 44.3277 155.3 44.9538 154.924 45.7051C154.548 46.4564 154.548 47.4582 154.674 48.7104C154.924 49.9626 155.3 51.4652 156.053 53.3435C156.805 55.2218 157.933 57.3505 159.312 59.8549C160.817 62.3593 162.07 64.488 163.324 65.9907C164.578 67.4933 165.581 68.7455 166.584 69.4968C167.587 70.3734 168.464 70.749 169.342 70.8742C170.219 70.9995 170.846 70.8742 171.598 70.4986C172.225 70.1229 172.727 69.622 172.977 68.8707C173.353 68.2446 173.353 67.2429 173.228 65.8654L161.318 44.7034ZM182.255 60.7315C183.383 61.4828 184.26 61.8584 185.013 61.9837C185.765 61.9837 186.517 61.8584 187.144 61.4828C187.771 61.1071 188.272 60.481 188.648 59.7297C189.024 58.9784 189.024 57.9766 188.899 56.7244C188.648 55.4722 188.272 53.8444 187.52 52.0913C186.768 50.213 185.64 48.0843 184.26 45.5799C182.881 43.0755 181.502 41.072 180.249 39.4441C178.995 37.8163 177.867 36.6893 176.989 35.938C175.986 35.1867 175.109 34.6858 174.231 34.5606C173.353 34.4354 172.727 34.5606 171.974 34.9363C171.348 35.3119 170.846 35.8128 170.47 36.4389C170.094 37.065 169.969 38.0667 170.094 39.4441L182.255 60.7315Z" fill="#242938"/>
<path d="M208.86 35.1118C210.816 37.5692 213.337 39.2272 216.6 39.7789C219.741 40.3631 223.197 39.6965 226.934 37.6581C229.888 36.0887 232.107 34.1978 233.776 32.1947C235.414 30.0708 236.655 27.9232 237.315 25.5425L245.313 29.2332C244.162 33.1715 242.332 36.5138 240 38.9535C237.701 41.514 234.756 43.5997 231.382 45.5407C228.339 47.2635 225.102 48.2605 221.856 48.7413C218.611 49.2221 215.566 49.0007 212.634 48.2307C209.702 47.4607 207.004 46.1095 204.418 44.2096C201.954 42.2773 199.844 39.7313 198.089 36.5718C196.366 33.5332 195.402 30.4209 194.988 27.4207C194.541 24.2995 194.764 21.258 195.69 18.4171C196.463 15.4877 197.971 12.8799 199.906 10.4167C201.963 7.92101 204.513 5.81179 207.588 4.20999C210.873 2.42233 214.11 1.42529 217.267 1.09791C220.545 0.738086 223.622 1.08036 226.651 2.21325C229.648 3.22519 232.597 5.02774 235.192 7.44389C237.907 9.82759 240.3 12.9458 242.371 16.7987L208.86 35.1118ZM227.979 14.4324C226.055 12.0959 223.631 10.8008 220.554 10.4585C217.477 10.1162 214.539 10.774 211.827 12.2785C208.994 13.8154 206.961 15.9158 205.518 18.7655C204.196 21.5827 203.908 24.3823 204.928 27.2203L227.979 14.4324Z" fill="#242938"/>
<path d="M257.637 80.8243C254.664 77.9509 252.718 74.8029 251.565 71.5346C250.52 68.3289 249.943 64.8149 249.834 60.9924C249.833 57.2326 250.375 53.7862 251.523 50.5448C252.608 47.4119 254.282 44.7635 256.265 42.5827C258.356 40.4646 260.819 38.7057 263.809 37.5398C266.798 36.3739 270.034 35.784 273.687 35.7245C277.169 35.7107 280.339 36.2391 283.303 37.3725C286.268 38.5058 288.811 40.1187 290.887 42.0399C292.962 43.9612 294.679 46.2535 295.865 48.9627C297.051 51.6719 297.724 54.5184 297.775 57.4395C297.809 60.6401 297.146 63.2936 295.831 65.5709C294.516 67.8482 292.675 69.5325 290.137 70.6696L296.713 70.5624L296.785 79.7136L275.55 79.8879L275.477 70.7366C279.519 70.7567 282.679 69.545 285.05 67.4438C287.484 65.2342 288.552 62.3809 288.535 58.9006C288.51 57.4401 288.205 55.9627 287.62 54.4683C287.035 52.9739 286.108 51.571 284.838 50.2597C283.569 48.9483 282.111 47.9623 280.14 47.1135C278.278 46.3275 276.057 45.9125 273.476 45.8686C270.896 45.8248 268.733 46.3112 266.942 47.1568C265.151 48.0024 263.514 49.0818 262.483 50.3662C261.281 51.6964 260.404 53.2146 259.791 55.0293C259.178 56.844 258.953 58.7383 258.899 60.5868C258.87 63.8959 259.434 66.6797 260.466 69.1551C261.498 71.6305 262.951 73.6263 264.53 75.4053L257.637 80.8243Z" fill="#242938"/>
<path d="M258.228 135.31C255.344 132.43 253.338 129.299 252.21 126.043C251.082 122.788 250.58 119.282 250.58 115.525C250.58 111.768 251.207 108.262 252.335 105.132C253.464 102.001 255.093 99.3716 257.099 97.2429C259.231 95.1142 261.738 93.3611 264.621 92.2341C267.505 91.1071 270.89 90.481 274.526 90.481C278.036 90.481 281.17 91.1071 284.179 92.2341C287.188 93.3611 289.695 94.989 291.826 96.8672C293.958 98.8708 295.587 101.125 296.716 103.88C297.969 106.509 298.471 109.389 298.471 112.394C298.471 115.525 297.844 118.28 296.465 120.534C295.211 122.788 293.205 124.541 290.698 125.542H297.342V134.684H276.03V125.542C280.042 125.542 283.301 124.416 285.683 122.287C288.065 120.033 289.319 117.278 289.319 113.772C289.319 112.394 289.068 110.892 288.441 109.389C287.815 107.887 286.937 106.384 285.809 105.132C284.555 103.88 283.051 102.753 281.17 102.001C279.289 101.125 277.033 100.749 274.4 100.749C271.893 100.749 269.636 101.125 267.756 102.001C265.875 102.878 264.371 103.88 263.242 105.257C261.989 106.634 261.111 108.137 260.484 109.89C259.857 111.643 259.607 113.521 259.607 115.525C259.607 118.781 260.108 121.661 261.111 124.04C262.114 126.419 263.493 128.548 265.248 130.301L258.228 135.31Z" fill="#242938"/>
<path d="M297.468 158.726H266.126L297.468 176.632V189.404H251.834V179.262H285.056L251.708 160.228V148.458H297.468V158.726Z" fill="#242938"/>
<path d="M269.385 217.203C269.511 212.069 270.639 208.062 273.021 205.182C275.278 202.302 278.788 200.925 283.427 200.925C288.065 200.925 291.576 202.427 293.958 205.307C296.34 208.187 297.593 212.32 297.593 217.579V244H251.959V233.857H269.636V229.725L251.959 213.697V200.298L269.385 217.203ZM283.427 210.942C281.797 210.942 280.543 211.568 279.666 212.695C278.788 213.822 278.412 215.45 278.412 217.454V233.857H288.191V217.454C288.191 215.45 287.814 213.822 286.937 212.695C286.059 211.568 285.056 210.942 283.427 210.942Z" fill="#242938"/>
</svg>
