<svg width="349" height="210" viewBox="0 0 349 210" fill="none" xmlns="http://www.w3.org/2000/svg">
<path d="M57.8816 166.723L55.5292 177.408L17.2829 169.093L12.5976 190.579L50.9619 198.875L48.6094 209.56L0.688477 199.215L9.96066 156.378L57.8816 166.723Z" fill="#242938"/>
<path d="M17.6579 132.576L23.1362 123.19L26.91 125.471C26.3426 122.779 26.1684 120.265 26.5054 117.908C26.7243 115.57 27.553 113.253 28.9913 110.956C30.6071 108.266 32.6552 105.988 35.0566 104.379C37.5564 102.633 40.1735 101.593 43.1244 101.104C46.0752 100.615 49.1042 100.598 52.4865 101.248C55.7507 101.918 59.1126 103.178 62.1986 104.967C65.4222 106.855 68.0947 109.077 70.3341 111.612C72.4554 114.167 74.1047 116.801 75.0652 119.669C76.0063 122.42 76.3767 125.386 76.1374 128.333C75.8981 131.279 74.9115 134.107 73.3153 136.915C71.8964 139.33 70.2619 141.176 68.4116 142.451C66.4433 143.746 64.1999 144.845 61.5632 145.766L82.3397 157.704L76.8614 167.09L17.6579 132.576ZM54.1336 141.184C56.0026 140.753 57.813 139.969 59.5257 138.595C61.2384 137.221 62.5774 135.788 63.5233 134.178C65.6121 130.683 65.9702 126.99 64.7548 123.316C63.5395 119.642 60.8483 116.576 56.8188 114.216C52.7894 111.856 48.7583 110.949 44.8827 111.713C41.0072 112.476 38.0743 114.537 36.005 118.15C35.0592 119.76 34.3884 121.567 34.0124 123.688C33.6363 125.809 33.7128 127.735 34.3991 129.68L54.1336 141.184Z" fill="#242938"/>
<path d="M106.482 61.1724C109.016 64.0224 110.842 66.9898 111.979 70.1924C113.097 73.2772 113.624 76.4598 113.424 79.6419C113.224 82.824 112.414 85.9861 110.837 88.9119C109.28 91.9556 107.074 94.7435 104.219 97.2756C101.365 99.8077 98.2746 101.652 95.0674 102.789C91.8601 103.926 88.6732 104.455 85.4871 104.256C82.301 104.057 79.2533 103.23 76.2064 101.677C73.2775 100.103 70.487 97.9011 67.9529 95.0511C65.5564 92.2994 63.6125 89.3516 62.4753 86.1489C61.22 82.9658 60.8105 79.7637 60.8927 76.6011C61.0929 73.419 61.9029 70.2569 63.4601 67.2133C65.0173 64.1696 67.2232 61.3817 70.078 58.8496C73.0508 56.2979 76.0228 54.4731 79.2105 53.218C82.4178 52.0809 85.6047 51.5526 88.8103 51.8691C91.9964 52.0677 95.1817 52.9931 98.1106 54.5665C101.295 56.2187 104.066 58.3028 106.482 61.1724ZM98.4493 68.3172C96.9564 66.6268 95.286 65.3293 93.5366 64.287C91.6693 63.2643 89.8605 62.5951 87.8938 62.4367C86.0451 62.2586 84.1371 62.4538 82.1696 63.0221C80.2021 63.5905 78.4308 64.6107 76.7572 66.2204C75.064 67.7122 73.764 69.381 72.9752 71.2073C72.1865 73.0336 71.7713 74.9191 71.7103 76.7459C71.6688 78.6906 72.0994 80.557 72.9037 82.4826C73.708 84.4082 74.8468 86.1572 76.3398 87.8476C77.8327 89.5379 79.5226 90.9534 81.2524 91.8778C82.9822 92.8022 84.909 93.4518 86.7772 93.7477C88.6454 94.0436 90.5535 93.8484 92.3834 93.1818C94.2134 92.5151 96.1027 91.4753 97.7959 89.9835C99.489 88.4918 100.789 86.8229 101.578 84.9966C102.367 83.1703 102.9 81.2652 102.823 79.3401C102.865 77.3955 102.434 75.529 101.748 73.5839C101.101 71.8744 99.9618 70.1254 98.4493 68.3172Z" fill="#242938"/>
<path d="M125.903 53.9566C127.709 56.8061 130.343 58.7919 133.666 59.8156C136.988 60.8393 140.785 60.3311 144.858 58.5659C148.145 57.1735 150.763 55.4073 152.614 53.4049C154.583 51.383 156.021 49.0856 157.086 46.7291L165.282 51.5473C163.665 55.691 161.419 58.9699 158.682 61.4825C155.926 63.8771 152.639 65.9964 148.782 67.6046C145.279 69.1541 141.777 69.9767 138.276 70.0726C134.775 70.1685 131.55 69.7341 128.444 68.5534C125.357 67.4906 122.507 65.6618 120.071 63.4012C117.615 61.0227 115.572 58.2123 114.022 54.7147C112.492 51.335 111.807 47.9362 111.614 44.577C111.421 41.2179 111.976 37.9771 113.179 34.9921C114.382 32.0071 116.116 29.2974 118.498 26.8436C120.881 24.3898 123.833 22.447 127.336 20.8976C130.957 19.3285 134.577 18.4863 138.098 18.5083C141.599 18.4124 144.882 19.2004 148.028 20.6168C151.173 22.0333 154.082 24.2157 156.734 27.0461C159.386 29.8766 161.683 33.4925 163.488 37.7957L125.903 53.9566ZM148.505 33.739C146.738 31.1252 144.261 29.3557 140.997 28.6856C137.733 28.0155 134.507 28.308 131.457 29.6613C128.289 31.0342 125.847 33.1345 124.133 35.962C122.419 38.7895 121.825 41.7945 122.589 44.938L148.505 33.739Z" fill="#242938"/>
<path d="M222.481 49.8179L208.514 51.1639L190.341 32.9814L185.91 38.4393L187.25 53.1139L176.373 54.0691L171.824 5.40914L182.702 4.45393L184.666 25.0809L202.294 2.65991L217.106 1.29483L196.663 25.7569L222.481 49.8179Z" fill="#242938"/>
<path d="M280.341 35.9885L270.765 33.8213L274.145 19.0909L265.08 17.0812L258.557 45.776L269.136 48.1403L266.962 57.7052L235.205 50.4943L237.38 40.9294L247.959 43.2937L254.481 14.599L245.397 12.4714L242.017 27.2017L232.559 25.0149L238.113 0.719662L285.876 11.5754L280.341 35.9885Z" fill="#242938"/>
<path d="M316.265 63.9457C313.703 68.2459 310.455 70.601 306.422 71.1483C302.39 71.6956 297.946 70.4943 293.11 67.6624L279.116 59.3242L304.299 17.363L313.596 22.9676L303.802 39.2455L308.638 42.0774C313.473 44.9093 316.577 48.2704 318.048 52.0233C319.362 55.5601 318.826 59.6455 316.265 63.9457ZM306.849 58.3607C307.815 56.8684 307.935 55.3952 307.208 53.9411C306.62 52.5853 305.323 51.3469 303.554 50.1867L298.719 47.3548L293.3 56.3675L298.135 59.1995C300.022 60.3401 301.674 60.793 303.11 60.6761C304.546 60.5592 305.884 59.8529 306.849 58.3607ZM338.735 37.8154L348.033 43.42L322.849 85.3812L313.552 79.7766L338.735 37.8154Z" fill="#242938"/>
</svg>
