<svg width="315" height="84" viewBox="0 0 315 84" fill="none" xmlns="http://www.w3.org/2000/svg">
<path d="M0.67749 19.3511H10.7849V23.4526C12.7055 21.7274 14.6423 20.4416 16.5955 19.5952C18.5811 18.7163 20.8435 18.2769 23.3826 18.2769C26.3123 18.2769 29.0304 18.8791 31.5369 20.0835C34.0434 21.2554 36.1918 22.8993 37.9822 25.0151C39.7725 27.0985 41.1886 29.6213 42.2302 32.5835C43.2719 35.5132 43.7927 38.7033 43.7927 42.1538C43.7927 45.6369 43.2719 48.8433 42.2302 51.7729C41.1886 54.7026 39.7725 57.2254 37.9822 59.3413C36.1918 61.4246 34.0434 63.0522 31.5369 64.2241C29.0304 65.396 26.3123 65.9819 23.3826 65.9819C20.8435 65.9819 18.5811 65.5262 16.5955 64.6147C14.6423 63.7033 12.7055 62.3849 10.7849 60.6597L10.7849 83.0718H0.67749L0.67749 19.3511ZM10.7849 52.6519C11.9893 53.9865 13.5193 55.0282 15.3748 55.7769C17.2628 56.493 19.0694 56.8511 20.7947 56.8511C24.6033 56.8511 27.6957 55.5002 30.072 52.7983C32.4809 50.0965 33.6853 46.5483 33.6853 42.1538C33.6853 37.7593 32.4809 34.1948 30.072 31.4604C27.6957 28.7261 24.6033 27.3589 20.7947 27.3589C19.0694 27.3589 17.2628 27.717 15.3748 28.4331C13.5193 29.1167 11.9893 30.1258 10.7849 31.4604L10.7849 52.6519ZM52.6794 51.7729C52.6794 49.1037 53.3956 46.7762 54.8279 44.7905C56.2602 42.7723 58.1319 41.0959 60.4431 39.7612C62.7869 38.4266 65.4561 37.4338 68.4509 36.7827C71.4783 36.0991 74.5544 35.7573 77.6794 35.7573C79.4047 35.7573 80.8858 35.7899 82.1228 35.855C83.3598 35.9201 84.613 36.0177 85.8826 36.1479V34.3413C85.8826 31.965 84.9548 30.1909 83.0994 29.019C81.2764 27.8472 78.8676 27.2612 75.8728 27.2612C73.1384 27.2612 70.3552 27.6519 67.5232 28.4331C64.6912 29.1818 62.0056 30.2886 59.4666 31.7534L55.365 23.8433C58.3598 22.118 61.5662 20.7671 64.9841 19.7905C68.4347 18.7814 72.0642 18.2769 75.8728 18.2769C78.3468 18.2769 80.7719 18.5535 83.1482 19.1069C85.557 19.6603 87.7055 20.5718 89.5935 21.8413C91.5141 23.1108 93.044 24.771 94.1833 26.8218C95.3227 28.84 95.8923 31.3465 95.8923 34.3413V64.8589H85.8826V58.1694C84.2875 60.6434 81.9275 62.564 78.8025 63.9312C75.71 65.2983 72.3735 65.9819 68.7927 65.9819C66.5792 65.9819 64.4796 65.6727 62.4939 65.0542C60.5408 64.4683 58.8481 63.5731 57.4158 62.3687C55.9835 61.1642 54.8279 59.6831 53.949 57.9253C53.1026 56.1349 52.6794 54.0841 52.6794 51.7729ZM71.3806 56.9487C73.3663 56.9487 75.2218 56.7046 76.947 56.2163C78.7048 55.6955 80.2511 54.9956 81.5857 54.1167C82.9203 53.2052 83.962 52.1147 84.7107 50.8452C85.4919 49.5757 85.8826 48.1759 85.8826 46.646V44.937C84.2875 44.6766 82.7901 44.5301 81.3904 44.4976C79.9906 44.465 78.7537 44.4487 77.6794 44.4487C72.7315 44.4487 68.988 45.0998 66.449 46.4019C63.9425 47.7039 62.6892 49.3153 62.6892 51.2358C62.6892 55.0444 65.5863 56.9487 71.3806 56.9487ZM118.158 43.1792C118.158 47.3133 119.248 50.6336 121.429 53.1401C123.643 55.6141 126.654 56.8511 130.463 56.8511C134.076 56.8511 137.038 55.6141 139.349 53.1401C141.693 50.6336 142.865 47.3133 142.865 43.1792C142.865 38.98 141.758 35.6434 139.545 33.1694C137.364 30.6955 134.336 29.4585 130.463 29.4585C126.329 29.4585 123.236 30.6955 121.185 33.1694C119.167 35.6434 118.158 38.98 118.158 43.1792ZM107.465 33.0718C107.465 28.189 107.969 23.7293 108.978 19.6929C110.02 15.6564 111.469 12.1896 113.324 9.29248C115.212 6.39535 117.442 4.13298 120.013 2.50537C122.585 0.877767 125.433 0.0639648 128.558 0.0639648C130.088 0.0639648 131.358 0.210449 132.367 0.503418C133.376 0.796387 134.271 1.15446 135.052 1.57764C135.866 1.96826 136.615 2.31006 137.299 2.60303C138.015 2.896 138.877 3.04248 139.886 3.04248C141.221 3.04248 142.344 2.81462 143.256 2.35889C144.2 1.90316 145.339 1.13818 146.674 0.0639648L151.263 6.75342C150.059 8.21826 148.431 9.48779 146.381 10.562C144.362 11.6362 142.198 12.1733 139.886 12.1733C138.324 12.1733 137.071 12.0269 136.127 11.7339C135.215 11.4084 134.369 11.0503 133.588 10.6597C132.839 10.269 132.09 9.92725 131.342 9.63428C130.625 9.30876 129.698 9.146 128.558 9.146C127.028 9.146 125.612 9.53662 124.31 10.3179C123.008 11.0666 121.853 12.271 120.844 13.9312C119.867 15.5588 119.086 17.6584 118.5 20.23C117.946 22.769 117.67 25.8778 117.67 29.5562C118.939 26.5614 120.713 24.2827 122.992 22.7202C125.303 21.1577 127.826 20.3765 130.56 20.3765C133.75 20.3765 136.713 20.8647 139.447 21.8413C142.181 22.7853 144.541 24.2176 146.527 26.1382C148.545 28.0262 150.124 30.3862 151.263 33.2183C152.403 36.0503 152.972 39.3706 152.972 43.1792C152.972 46.3693 152.403 49.3641 151.263 52.1636C150.124 54.9631 148.545 57.3882 146.527 59.439C144.541 61.4572 142.181 63.0522 139.447 64.2241C136.713 65.396 133.75 65.9819 130.56 65.9819C122.911 65.9819 117.149 63.3127 113.275 57.9741C109.401 52.6356 107.465 44.3348 107.465 33.0718ZM208.734 42.1538C208.734 45.702 208.164 48.9246 207.025 51.8218C205.918 54.7189 204.307 57.2254 202.191 59.3413C200.108 61.4246 197.601 63.0522 194.672 64.2241C191.742 65.396 188.47 65.9819 184.857 65.9819C181.309 65.9819 178.07 65.396 175.14 64.2241C172.211 63.0522 169.688 61.4246 167.572 59.3413C165.489 57.2254 163.877 54.7189 162.738 51.8218C161.631 48.9246 161.078 45.702 161.078 42.1538C161.078 38.7033 161.631 35.5132 162.738 32.5835C163.877 29.6213 165.489 27.0822 167.572 24.9663C169.688 22.8179 172.211 21.174 175.14 20.0347C178.07 18.8628 181.309 18.2769 184.857 18.2769C188.47 18.2769 191.742 18.8628 194.672 20.0347C197.601 21.174 200.108 22.8179 202.191 24.9663C204.307 27.0822 205.918 29.6213 207.025 32.5835C208.164 35.5132 208.734 38.7033 208.734 42.1538ZM198.676 42.1538C198.676 40.103 198.35 38.1662 197.699 36.3433C197.08 34.4878 196.169 32.909 194.965 31.6069C193.76 30.3049 192.295 29.2795 190.57 28.5308C188.877 27.7495 186.973 27.3589 184.857 27.3589C182.709 27.3589 180.788 27.7495 179.095 28.5308C177.403 29.2795 175.97 30.3049 174.799 31.6069C173.627 32.909 172.715 34.4878 172.064 36.3433C171.446 38.1662 171.136 40.103 171.136 42.1538C171.136 44.3022 171.446 46.2554 172.064 48.0132C172.715 49.771 173.627 51.3172 174.799 52.6519C175.97 53.9865 177.403 55.0282 179.095 55.7769C180.788 56.493 182.709 56.8511 184.857 56.8511C186.973 56.8511 188.877 56.493 190.57 55.7769C192.295 55.0282 193.76 53.9865 194.965 52.6519C196.169 51.3172 197.08 49.771 197.699 48.0132C198.35 46.2554 198.676 44.3022 198.676 42.1538ZM262.054 42.5444H253.021V28.4819H244.427V55.7769H254.535V64.8589H224.261V55.7769H234.32V28.4819H225.629V42.5444H216.644V19.3511L262.054 19.3511V42.5444ZM271.039 51.7729C271.039 49.1037 271.755 46.7762 273.187 44.7905C274.62 42.7723 276.491 41.0959 278.802 39.7612C281.146 38.4266 283.816 37.4338 286.81 36.7827C289.838 36.0991 292.914 35.7573 296.039 35.7573C297.764 35.7573 299.245 35.7899 300.482 35.855C301.719 35.9201 302.972 36.0177 304.242 36.1479V34.3413C304.242 31.965 303.314 30.1909 301.459 29.019C299.636 27.8472 297.227 27.2612 294.232 27.2612C291.498 27.2612 288.715 27.6519 285.883 28.4331C283.051 29.1818 280.365 30.2886 277.826 31.7534L273.724 23.8433C276.719 22.118 279.926 20.7671 283.344 19.7905C286.794 18.7814 290.424 18.2769 294.232 18.2769C296.706 18.2769 299.131 18.5535 301.508 19.1069C303.916 19.6603 306.065 20.5718 307.953 21.8413C309.873 23.1108 311.403 24.771 312.543 26.8218C313.682 28.84 314.252 31.3465 314.252 34.3413V64.8589H304.242V58.1694C302.647 60.6434 300.287 62.564 297.162 63.9312C294.069 65.2983 290.733 65.9819 287.152 65.9819C284.939 65.9819 282.839 65.6727 280.853 65.0542C278.9 64.4683 277.207 63.5731 275.775 62.3687C274.343 61.1642 273.187 59.6831 272.308 57.9253C271.462 56.1349 271.039 54.0841 271.039 51.7729ZM289.74 56.9487C291.726 56.9487 293.581 56.7046 295.306 56.2163C297.064 55.6955 298.61 54.9956 299.945 54.1167C301.28 53.2052 302.321 52.1147 303.07 50.8452C303.851 49.5757 304.242 48.1759 304.242 46.646V44.937C302.647 44.6766 301.149 44.5301 299.75 44.4976C298.35 44.465 297.113 44.4487 296.039 44.4487C291.091 44.4487 287.347 45.0998 284.808 46.4019C282.302 47.7039 281.049 49.3153 281.049 51.2358C281.049 55.0444 283.946 56.9487 289.74 56.9487Z" fill="black"/>
</svg>
